<?xml version="1.0" encoding="UTF-8"?>
<svg id="Layer_2" data-name="Layer 2" xmlns="http://www.w3.org/2000/svg" xmlns:xlink="http://www.w3.org/1999/xlink" viewBox="0 0 496.79 496.79">
  <defs>
    <style>
      .cls-1 {
        fill: url(#linear-gradient-2);
      }

      .cls-2 {
        fill: url(#linear-gradient);
      }

      .cls-3 {
        fill: #fafffb;
      }

      .cls-4 {
        fill: #010f01;
      }
    </style>
    <linearGradient id="linear-gradient" x1="40.7" y1="248.4" x2="456.09" y2="248.4" gradientUnits="userSpaceOnUse">
      <stop offset="0" stop-color="#85f637"/>
      <stop offset="1" stop-color="#85f637"/>
    </linearGradient>
    <linearGradient id="linear-gradient-2" x1="38.34" y1="248.4" x2="458.45" y2="248.4" xlink:href="#linear-gradient"/>
  </defs>
  <g id="DESIGNED_BY_Kim_Zamorano" data-name="DESIGNED BY Kim Zamorano">
    <g>
      <g>
        <circle class="cls-3" cx="248.4" cy="248.4" r="248.4"/>
        <g>
          <path class="cls-2" d="M248.4,456.09c-55.48,0-107.64-21.6-146.87-60.83-39.23-39.23-60.83-91.39-60.83-146.87s21.6-107.64,60.83-146.87c39.23-39.23,91.39-60.83,146.87-60.83s107.64,21.6,146.87,60.83c39.23,39.23,60.83,91.39,60.83,146.87s-21.6,107.64-60.83,146.87c-39.23,39.23-91.39,60.83-146.87,60.83ZM248.4,44.47c-54.47,0-105.68,21.21-144.2,59.73-38.52,38.52-59.73,89.73-59.73,144.2s21.21,105.68,59.73,144.2c38.52,38.52,89.73,59.73,144.2,59.73s105.68-21.21,144.2-59.73c38.52-38.52,59.73-89.73,59.73-144.2s-21.21-105.68-59.73-144.2c-38.52-38.52-89.73-59.73-144.2-59.73Z"/>
          <path class="cls-1" d="M248.4,458.45c-56.11,0-108.86-21.85-148.53-61.52-39.67-39.67-61.52-92.42-61.52-148.53s21.85-108.86,61.52-148.53c39.67-39.67,92.42-61.52,148.53-61.52s108.86,21.85,148.53,61.52c39.67,39.67,61.52,92.42,61.52,148.53s-21.85,108.86-61.52,148.53c-39.67,39.67-92.42,61.52-148.53,61.52ZM248.4,46.82c-53.84,0-104.46,20.97-142.53,59.04-38.07,38.07-59.04,88.69-59.04,142.53s20.97,104.46,59.04,142.53c38.07,38.07,88.69,59.04,142.53,59.04s104.46-20.97,142.53-59.04c38.07-38.07,59.04-88.69,59.04-142.53s-20.97-104.46-59.04-142.53c-38.07-38.07-88.69-59.04-142.53-59.04Z"/>
        </g>
      </g>
      <g>
        <path class="cls-4" d="M334.99,233.92c-3.03-2.23-6.77-4.98-7.25-6.81-.52-1.99,1.39-6.41,2.91-9.95,2.63-6.09,5.38-12.38,2.35-17.64-3.07-5.34-9.95-6.09-16.6-6.85-3.78-.44-8.52-.96-9.91-2.39-1.43-1.39-1.95-6.13-2.39-9.91-.76-6.65-1.51-13.54-6.85-16.6-4.62-2.67-11.47-.36-17.64,2.35-3.42,1.47-6.97,2.91-9.95,2.91-1.83-.48-4.58-4.22-6.81-7.25-3.82-5.18-8.16-11.07-14.45-11.07s-10.59,5.89-14.45,11.07c-2.23,3.03-4.98,6.77-7.6,7.37-2.27,0-5.81-1.51-9.2-3.03-6.17-2.67-13.02-5.02-17.6-2.35-5.34,3.07-6.09,9.95-6.85,16.6-.4,3.78-.96,8.52-2.35,9.91-1.43,1.43-6.13,1.95-9.91,2.39-6.65.76-13.54,1.51-16.6,6.85-3.03,5.26-.28,11.55,2.35,17.64,1.55,3.54,3.46,7.96,2.95,9.95-.48,1.83-4.26,4.62-7.25,6.81-5.26,3.86-11.15,8.2-11.15,14.45s5.89,10.63,11.11,14.45c3.03,2.23,6.77,4.98,7.25,6.81.52,1.99-1.39,6.41-2.91,9.95-2.63,6.09-5.38,12.38-2.35,17.64,3.07,5.34,9.95,6.09,16.6,6.85,3.78.44,8.52.96,9.91,2.39,1.43,1.39,1.95,6.13,2.39,9.91.76,6.65,1.51,13.54,6.85,16.6,4.62,2.67,11.47.36,17.64-2.35,3.42-1.47,6.89-2.99,9.95-2.91,1.83.48,4.58,4.22,6.81,7.25,3.82,5.22,8.16,11.11,14.45,11.11s10.59-5.89,14.41-11.07c2.23-3.03,4.98-6.77,7.6-7.37,2.31,0,5.81,1.51,9.2,3.03,6.17,2.71,13.02,5.02,17.6,2.35,5.34-3.07,6.09-9.95,6.85-16.6.4-3.78.96-8.52,2.35-9.91s6.13-1.95,9.91-2.39c6.65-.76,13.54-1.51,16.6-6.85,3.03-5.26.32-11.55-2.35-17.64-1.55-3.54-3.46-7.96-2.91-9.95.48-1.83,4.26-4.62,7.25-6.81,5.22-3.82,11.11-8.16,11.11-14.45s-5.85-10.63-11.07-14.49ZM329.98,255.98c-4.5,3.3-9.16,6.77-10.43,11.47-1.31,4.86,1.08,10.31,3.34,15.57,1.47,3.34,3.66,8.44,2.79,9.99-.92,1.59-6.49,2.23-10.19,2.67-5.65.64-11.47,1.27-15.01,4.82-3.5,3.5-4.18,9.36-4.82,15.01-.4,3.7-1.04,9.28-2.67,10.19-.24.16-.64.16-.96.16-2.19,0-5.69-1.51-9.04-2.95-5.26-2.27-11.03-4.58-15.53-3.34-4.7,1.27-8.16,5.93-11.47,10.43-2.23,3.03-5.61,7.64-7.6,7.64s-5.38-4.58-7.6-7.64c-3.3-4.5-6.77-9.16-11.47-10.43-.92-.24-1.91-.36-2.95-.36-4.06,0-8.4,1.87-12.58,3.7-3.34,1.43-6.81,2.95-9.04,2.95-.28,0-.72-.04-.96-.16-1.63-.92-2.23-6.53-2.67-10.19-.64-5.65-1.27-11.47-4.82-15.01-3.5-3.5-9.36-4.18-15.01-4.82-3.7-.4-9.28-1.04-10.19-2.67-.88-1.51,1.31-6.61,2.79-9.99,2.27-5.26,4.66-10.67,3.34-15.57-1.27-4.7-5.93-8.12-10.43-11.47-3.03-2.27-7.64-5.65-7.64-7.6s4.58-5.38,7.64-7.6c4.5-3.3,9.16-6.77,10.43-11.47,1.31-4.86-1.08-10.31-3.34-15.57-1.43-3.34-3.66-8.44-2.79-9.99.92-1.59,6.53-2.23,10.19-2.63,5.65-.64,11.47-1.27,15.01-4.82,3.54-3.54,4.18-9.36,4.82-15.01.4-3.7,1.04-9.28,2.67-10.19.24-.16.64-.16.96-.16,2.19,0,5.69,1.51,9.04,2.99,5.26,2.27,11.03,4.58,15.53,3.34,4.7-1.27,8.16-5.93,11.47-10.43,2.23-3.03,5.61-7.64,7.6-7.64s5.38,4.58,7.6,7.64c3.3,4.5,6.77,9.16,11.47,10.43,4.5,1.19,10.27-1.04,15.53-3.34,3.34-1.43,6.81-2.95,9.04-2.95.28,0,.72.04.96.16,1.63.92,2.23,6.53,2.67,10.19.64,5.65,1.27,11.47,4.82,15.01,3.5,3.5,9.36,4.18,15.01,4.82,3.7.4,9.28,1.04,10.19,2.67.88,1.51-1.31,6.61-2.79,9.99-2.27,5.26-4.66,10.67-3.34,15.57,1.27,4.7,5.93,8.12,10.43,11.47,3.03,2.27,7.64,5.65,7.64,7.6s-4.62,5.3-7.64,7.53Z"/>
        <path class="cls-4" d="M222.91,227.15c-2.35,0-4.26,1.91-4.26,4.26v21.22l-17.84-23.77c-1.11-1.47-3.03-2.07-4.74-1.47-1.75.6-2.91,2.19-2.91,4.02v33.96c0,2.35,1.91,4.26,4.26,4.26s4.26-1.91,4.26-4.26v-21.22l17.84,23.77c.8,1.07,2.07,1.71,3.38,1.71.44,0,.92-.08,1.35-.24,1.75-.6,2.91-2.19,2.91-4.02v-33.96c0-2.35-1.91-4.26-4.26-4.26Z"/>
        <path class="cls-4" d="M256.92,235.63c2.35,0,4.26-1.91,4.26-4.26s-1.91-4.26-4.26-4.26h-17c-2.35,0-4.26,1.91-4.26,4.26v34c0,2.35,1.91,4.26,4.26,4.26h17c2.35,0,4.26-1.91,4.26-4.26s-1.91-4.26-4.26-4.26h-12.74v-8.48h12.74c2.35,0,4.26-1.91,4.26-4.26s-1.91-4.22-4.26-4.22h-12.74v-8.52h12.74Z"/>
        <path class="cls-4" d="M308.87,227.27c-2.31-.56-4.58.8-5.14,3.11l-4.94,19.83-3.86-11.63c-1.15-3.46-6.89-3.46-8.04,0l-3.86,11.63-4.94-19.83c-.56-2.27-2.91-3.66-5.14-3.11-2.27.56-3.66,2.87-3.11,5.14l8.48,33.96c.48,1.83,2.07,3.15,3.94,3.22,2.15.08,3.58-1.11,4.18-2.91l4.46-13.38,4.46,13.38c.6,1.75,2.19,2.91,4.02,2.91h.16c1.87-.08,3.5-1.39,3.94-3.22l8.48-33.96c.56-2.27-.8-4.58-3.11-5.14Z"/>
      </g>
    </g>
  </g>
</svg>