<?xml version="1.0" encoding="UTF-8"?>
<svg id="Layer_2" data-name="Layer 2" xmlns="http://www.w3.org/2000/svg" xmlns:xlink="http://www.w3.org/1999/xlink" viewBox="0 0 496.79 496.79">
  <defs>
    <style>
      .cls-1 {
        fill: url(#linear-gradient-2);
      }

      .cls-2 {
        fill: url(#linear-gradient);
      }

      .cls-3 {
        fill: #fafffb;
      }

      .cls-4 {
        fill: #010f01;
      }
    </style>
    <linearGradient id="linear-gradient" x1="40.7" y1="248.4" x2="456.09" y2="248.4" gradientUnits="userSpaceOnUse">
      <stop offset="0" stop-color="#85f637"/>
      <stop offset="1" stop-color="#85f637"/>
    </linearGradient>
    <linearGradient id="linear-gradient-2" x1="38.34" y1="248.4" x2="458.45" y2="248.4" xlink:href="#linear-gradient"/>
  </defs>
  <g id="Swatch_Info_Layer" data-name="Swatch Info Layer">
    <g>
      <g>
        <circle class="cls-3" cx="248.4" cy="248.4" r="248.4"/>
        <g>
          <path class="cls-2" d="M248.4,456.09c-55.48,0-107.64-21.6-146.87-60.83-39.23-39.23-60.83-91.39-60.83-146.87s21.6-107.64,60.83-146.87c39.23-39.23,91.39-60.83,146.87-60.83s107.64,21.6,146.87,60.83c39.23,39.23,60.83,91.39,60.83,146.87s-21.6,107.64-60.83,146.87c-39.23,39.23-91.39,60.83-146.87,60.83ZM248.4,44.47c-54.47,0-105.68,21.21-144.2,59.73-38.52,38.52-59.73,89.73-59.73,144.2s21.21,105.68,59.73,144.2c38.52,38.52,89.73,59.73,144.2,59.73s105.68-21.21,144.2-59.73c38.52-38.52,59.73-89.73,59.73-144.2s-21.21-105.68-59.73-144.2c-38.52-38.52-89.73-59.73-144.2-59.73Z"/>
          <path class="cls-1" d="M248.4,458.45c-56.11,0-108.86-21.85-148.53-61.52-39.67-39.67-61.52-92.42-61.52-148.53s21.85-108.86,61.52-148.53c39.67-39.67,92.42-61.52,148.53-61.52s108.86,21.85,148.53,61.52c39.67,39.67,61.52,92.42,61.52,148.53s-21.85,108.86-61.52,148.53c-39.67,39.67-92.42,61.52-148.53,61.52ZM248.4,46.82c-53.84,0-104.46,20.97-142.53,59.04-38.07,38.07-59.04,88.69-59.04,142.53s20.97,104.46,59.04,142.53c38.07,38.07,88.69,59.04,142.53,59.04s104.46-20.97,142.53-59.04c38.07-38.07,59.04-88.69,59.04-142.53s-20.97-104.46-59.04-142.53c-38.07-38.07-88.69-59.04-142.53-59.04Z"/>
        </g>
      </g>
      <g>
        <path class="cls-4" d="M189.53,298.04c-2.54,0-4.99.63-7.16,1.83-11.42-14.64-17.69-32.83-17.69-51.47,0-46.16,37.55-83.72,83.72-83.72,5.61,0,11.22.56,16.67,1.66,1.92.39,3.79-.85,4.18-2.77s-.85-3.79-2.77-4.18c-5.91-1.19-11.99-1.8-18.08-1.8-24.26,0-47.06,9.45-64.21,26.6-17.15,17.15-26.6,39.96-26.6,64.21,0,20.4,6.93,40.32,19.54,56.28-1.62,2.43-2.5,5.28-2.5,8.26,0,3.98,1.55,7.72,4.36,10.53,2.81,2.81,6.55,4.36,10.53,4.36s7.72-1.55,10.54-4.36c2.81-2.81,4.36-6.56,4.36-10.54s-1.55-7.72-4.36-10.53c-2.81-2.81-6.56-4.36-10.54-4.36ZM195.05,318.46c-1.47,1.47-3.43,2.29-5.52,2.29s-4.04-.81-5.52-2.29c-1.47-1.47-2.29-3.43-2.29-5.52s.81-4.04,2.29-5.52c1.47-1.47,3.43-2.28,5.52-2.28s4.04.81,5.52,2.28c1.47,1.47,2.29,3.43,2.29,5.52s-.81,4.04-2.29,5.52Z"/>
        <path class="cls-4" d="M319.66,192.11c3.86-5.79,3.24-13.69-1.86-18.8-2.81-2.81-6.56-4.36-10.54-4.36s-7.72,1.55-10.54,4.36c-2.81,2.81-4.36,6.56-4.36,10.54s1.55,7.72,4.36,10.54,6.56,4.36,10.54,4.36c2.54,0,4.99-.63,7.16-1.83,11.42,14.65,17.69,32.83,17.69,51.47,0,46.16-37.55,83.72-83.72,83.72-5.56,0-11.11-.55-16.51-1.63-1.92-.38-3.79.86-4.18,2.78-.38,1.92.86,3.79,2.78,4.18,5.86,1.17,11.88,1.77,17.91,1.77,24.26,0,47.06-9.45,64.21-26.6,17.15-17.15,26.6-39.96,26.6-64.21,0-20.41-6.93-40.32-19.54-56.28ZM301.74,189.37c-1.47-1.47-2.29-3.43-2.29-5.52s.81-4.04,2.29-5.52c1.47-1.47,3.43-2.29,5.52-2.29s4.04.81,5.52,2.29c3.04,3.04,3.04,7.99,0,11.04-1.47,1.47-3.44,2.28-5.52,2.28s-4.04-.81-5.52-2.28Z"/>
        <path class="cls-4" d="M233.76,309.41c0,1.96,1.59,3.55,3.55,3.55h22.18c1.96,0,3.55-1.59,3.55-3.55v-6.88c4.66-1.26,9.12-3.1,13.31-5.52l4.86,4.86c.67.67,1.57,1.04,2.51,1.04s1.84-.37,2.51-1.04l15.68-15.69c1.38-1.39,1.38-3.63,0-5.02l-4.85-4.85c2.41-4.19,4.26-8.65,5.52-13.31h6.85c1.96,0,3.55-1.59,3.55-3.55v-22.18c0-1.96-1.59-3.55-3.55-3.55h-6.85c-1.26-4.66-3.1-9.12-5.52-13.31l4.82-4.82c.67-.67,1.04-1.57,1.04-2.51,0-.94-.38-1.84-1.04-2.51l-15.69-15.68c-1.38-1.38-3.63-1.38-5.02,0l-4.82,4.82c-4.19-2.41-8.65-4.26-13.31-5.52v-6.81c0-1.96-1.59-3.55-3.55-3.55h-22.18c-1.96,0-3.55,1.59-3.55,3.55v6.81c-4.66,1.25-9.12,3.1-13.31,5.52l-4.82-4.82c-1.38-1.38-3.63-1.39-5.02,0l-15.69,15.68c-.67.67-1.04,1.57-1.04,2.51s.37,1.84,1.04,2.51l4.82,4.82c-2.41,4.19-4.26,8.65-5.52,13.31h-6.84c-1.96,0-3.55,1.59-3.55,3.55v22.18c-.01.94.36,1.84,1.03,2.51s1.57,1.04,2.51,1.04h6.85c1.26,4.66,3.1,9.12,5.52,13.31l-4.85,4.85c-1.38,1.38-1.39,3.63,0,5.02l15.68,15.69c.67.67,1.57,1.04,2.51,1.04h0c.94,0,1.84-.37,2.51-1.04l4.85-4.86c4.19,2.41,8.65,4.26,13.31,5.52v6.88ZM221.83,289.55c-1.4-.91-3.25-.71-4.43.47l-4.32,4.32-10.66-10.67,4.31-4.32c1.18-1.18,1.38-3.03.47-4.43-3.22-4.98-5.48-10.43-6.72-16.22-.35-1.63-1.8-2.8-3.47-2.8h-6.09v-15.09h6.09c1.67,0,3.12-1.17,3.47-2.8,1.24-5.78,3.5-11.24,6.72-16.22.91-1.4.71-3.25-.47-4.43l-4.29-4.29,10.67-10.66,4.28,4.28c1.18,1.18,3.03,1.38,4.43.47,4.98-3.22,10.43-5.48,16.22-6.72,1.63-.35,2.8-1.8,2.8-3.47v-6.06h15.09v6.06c0,1.67,1.17,3.12,2.8,3.47,5.78,1.24,11.24,3.5,16.22,6.72,1.4.91,3.25.71,4.43-.47l4.28-4.28,10.67,10.66-4.29,4.29c-1.18,1.18-1.38,3.03-.47,4.43,3.22,4.98,5.48,10.43,6.72,16.22.35,1.64,1.8,2.8,3.47,2.8h6.1v15.09h-6.1c-1.67,0-3.12,1.17-3.47,2.8-1.24,5.78-3.5,11.24-6.72,16.22-.91,1.41-.71,3.25.47,4.43l4.31,4.31-10.66,10.67-4.32-4.32c-1.18-1.18-3.03-1.38-4.43-.47-4.98,3.22-10.43,5.48-16.22,6.72-1.64.35-2.8,1.8-2.8,3.47v6.12h-15.09v-6.12c0-1.67-1.17-3.12-2.8-3.47-5.78-1.24-11.24-3.5-16.22-6.72Z"/>
        <path class="cls-4" d="M277.71,248.4c0-16.16-13.15-29.31-29.31-29.31s-29.31,13.15-29.31,29.31,13.15,29.31,29.31,29.31,29.31-13.15,29.31-29.31ZM226.18,248.4c0-12.25,9.97-22.22,22.22-22.22s22.22,9.97,22.22,22.22-9.97,22.22-22.22,22.22-22.22-9.97-22.22-22.22Z"/>
        <path class="cls-4" d="M281.06,171c.93,0,1.85-.38,2.51-1.04.66-.66,1.04-1.58,1.04-2.51s-.38-1.84-1.04-2.51c-.66-.66-1.57-1.04-2.51-1.04s-1.85.38-2.51,1.04c-.66.66-1.04,1.58-1.04,2.51s.38,1.85,1.04,2.51c.66.66,1.57,1.04,2.51,1.04Z"/>
        <path class="cls-4" d="M215.89,325.85c-.93,0-1.85.38-2.51,1.04s-1.04,1.58-1.04,2.51.38,1.85,1.04,2.51,1.58,1.04,2.51,1.04,1.85-.38,2.51-1.04,1.04-1.58,1.04-2.51-.38-1.85-1.04-2.51-1.58-1.04-2.51-1.04Z"/>
      </g>
    </g>
  </g>
</svg>