<?xml version="1.0" encoding="UTF-8"?>
<svg id="Layer_2" data-name="Layer 2" xmlns="http://www.w3.org/2000/svg" xmlns:xlink="http://www.w3.org/1999/xlink" viewBox="0 0 496.79 496.79">
  <defs>
    <style>
      .cls-1 {
        fill: #010f01;
        stroke: #010f01;
        stroke-miterlimit: 10;
      }

      .cls-2 {
        fill: url(#linear-gradient-2);
      }

      .cls-3 {
        fill: url(#linear-gradient);
      }

      .cls-4 {
        fill: #fafffb;
      }
    </style>
    <linearGradient id="linear-gradient" x1="40.7" y1="248.4" x2="456.09" y2="248.4" gradientUnits="userSpaceOnUse">
      <stop offset="0" stop-color="#85f637"/>
      <stop offset="1" stop-color="#85f637"/>
    </linearGradient>
    <linearGradient id="linear-gradient-2" x1="38.34" y1="248.4" x2="458.45" y2="248.4" xlink:href="#linear-gradient"/>
  </defs>
  <g id="Swatch_Info_Layer" data-name="Swatch Info Layer">
    <g>
      <g>
        <circle class="cls-4" cx="248.4" cy="248.4" r="248.4"/>
        <g>
          <path class="cls-3" d="M248.4,456.09c-55.48,0-107.64-21.6-146.87-60.83-39.23-39.23-60.83-91.39-60.83-146.87s21.6-107.64,60.83-146.87c39.23-39.23,91.39-60.83,146.87-60.83s107.64,21.6,146.87,60.83c39.23,39.23,60.83,91.39,60.83,146.87s-21.6,107.64-60.83,146.87c-39.23,39.23-91.39,60.83-146.87,60.83ZM248.4,44.47c-54.47,0-105.68,21.21-144.2,59.73-38.52,38.52-59.73,89.73-59.73,144.2s21.21,105.68,59.73,144.2c38.52,38.52,89.73,59.73,144.2,59.73s105.68-21.21,144.2-59.73c38.52-38.52,59.73-89.73,59.73-144.2s-21.21-105.68-59.73-144.2c-38.52-38.52-89.73-59.73-144.2-59.73Z"/>
          <path class="cls-2" d="M248.4,458.45c-56.11,0-108.86-21.85-148.53-61.52-39.67-39.67-61.52-92.42-61.52-148.53s21.85-108.86,61.52-148.53c39.67-39.67,92.42-61.52,148.53-61.52s108.86,21.85,148.53,61.52c39.67,39.67,61.52,92.42,61.52,148.53s-21.85,108.86-61.52,148.53c-39.67,39.67-92.42,61.52-148.53,61.52ZM248.4,46.82c-53.84,0-104.46,20.97-142.53,59.04-38.07,38.07-59.04,88.69-59.04,142.53s20.97,104.46,59.04,142.53c38.07,38.07,88.69,59.04,142.53,59.04s104.46-20.97,142.53-59.04c38.07-38.07,59.04-88.69,59.04-142.53s-20.97-104.46-59.04-142.53c-38.07-38.07-88.69-59.04-142.53-59.04Z"/>
        </g>
      </g>
      <path class="cls-1" d="M267.67,248.37l17.4-17.4c17.02,6.67,36.23-1.72,42.9-18.74,2.95-7.53,3.04-15.87.26-23.46-.52-1.41-2.08-2.13-3.49-1.62-.37.14-.71.35-.99.63l-20.02,20.03-13.88-.37-.37-13.87,20.03-20.03c1.06-1.06,1.06-2.78,0-3.85-.28-.28-.62-.5-.99-.63-17.17-6.29-36.19,2.52-42.48,19.69-2.78,7.59-2.69,15.95.26,23.48l-17.4,17.4-4.39-4.39-.03-.02c-1.58-1.87-2.73-4.06-3.37-6.41-1.37-4.3-2-8.79-1.87-13.3.22-21.57-17.08-39.23-38.65-39.45-9.46-.1-18.64,3.25-25.82,9.4-1.14.98-1.27,2.7-.29,3.84.22.26.5.48.8.64l30.76,16.15,2.43,8.25-8.12,10.29-29.43-16.74c-1.31-.74-2.97-.28-3.71,1.02-.19.34-.31.71-.34,1.09-1.07,11.07,3.14,21.99,11.37,29.47,2.01,1.85,4.24,3.46,6.63,4.79l-1.8,2.28c-.93,1.18-.73,2.89.45,3.82.17.14.36.25.57.34,8.43,3.8,17.93,4.5,26.83,1.97,4.33-1.39,9.06-.57,12.66,2.2.23.2.47.4.67.61h.01s4.39,4.4,4.39,4.4l-16.95,16.94c-17.02-6.67-36.23,1.72-42.9,18.74-2.95,7.53-3.04,15.87-.26,23.47.52,1.41,2.08,2.13,3.49,1.62.37-.14.71-.35.99-.63l20.02-20.02,13.88.37.37,13.87-20.02,20.02c-1.06,1.06-1.06,2.79,0,3.85.28.28.62.5.99.63,12.1,4.42,25.67,1.42,34.79-7.68,9.27-9.32,12.17-23.23,7.42-35.49l16.94-16.95,55.38,55.39c5.64,5.55,14.71,5.48,20.26-.16,5.49-5.58,5.49-14.52,0-20.1l-55.38-55.38ZM242.61,231l2.46,2.46-12.56,12.56-2.46-2.46,12.56-12.56ZM181.95,225.46c-5.85-5.3-9.35-12.71-9.74-20.59l24.75,14.08-8.66,10.97c-2.31-1.2-4.45-2.7-6.36-4.46h0ZM215.31,236.6c-1.98,0-3.95.28-5.86.83-6.49,1.85-13.39,1.7-19.8-.41l1.49-1.89s.06-.07.09-.11l11.89-15.08.03-.04,10.5-13.32c.54-.69.72-1.61.47-2.45l-3.15-10.71c-.21-.71-.69-1.3-1.35-1.64l-28-14.7c13.34-8.8,31.03-7.03,42.37,4.23,6.41,6.38,9.97,15.08,9.85,24.12-.14,5.11.59,10.22,2.16,15.09.71,2.26,1.71,4.43,2.98,6.43l-12.93,12.92c-3.15-2.18-6.9-3.32-10.73-3.28h0ZM224.78,286.08c6.39,13.88.31,30.31-13.57,36.69-5.25,2.41-11.12,3.13-16.79,2.03l17.56-17.56c.53-.53.82-1.25.8-2l-.47-17.62c-.04-1.44-1.2-2.6-2.64-2.64l-17.62-.47c-.75-.02-1.47.27-2,.8l-17.56,17.55c-2.89-15,6.93-29.51,21.93-32.4,5.68-1.1,11.56-.38,16.82,2.04,1.03.48,2.26.26,3.06-.55l20.15-20.15h0s16.4-16.4,16.4-16.4l20.63-20.63c.81-.8,1.02-2.03.55-3.06-6.39-13.88-.31-30.31,13.57-36.7,5.25-2.41,11.12-3.13,16.79-2.04l-17.55,17.56c-.53.53-.82,1.25-.8,1.99l.47,17.62c.04,1.44,1.2,2.6,2.64,2.64l17.62.47c.75.02,1.47-.26,2-.8l17.57-17.55c2.88,15-6.94,29.51-21.95,32.39-5.67,1.09-11.54.38-16.78-2.03-1.03-.48-2.26-.26-3.06.55l-57.2,57.19c-.81.81-1.02,2.03-.55,3.06h0ZM319.21,320.14c-3.47,3.46-9.09,3.46-12.57,0l-55.37-55.37,12.56-12.56,55.37,55.37c3.46,3.47,3.46,9.09,0,12.56h0Z"/>
    </g>
  </g>
</svg>