<?xml version="1.0" encoding="UTF-8"?>
<svg id="Layer_2" data-name="Layer 2" xmlns="http://www.w3.org/2000/svg" xmlns:xlink="http://www.w3.org/1999/xlink" viewBox="0 0 496.79 496.79">
  <defs>
    <style>
      .cls-1 {
        fill: url(#linear-gradient-2);
      }

      .cls-2 {
        fill: url(#linear-gradient);
      }

      .cls-3 {
        fill: #fafffb;
      }

      .cls-4 {
        fill: #010f01;
      }
    </style>
    <linearGradient id="linear-gradient" x1="40.7" y1="248.4" x2="456.09" y2="248.4" gradientUnits="userSpaceOnUse">
      <stop offset="0" stop-color="#85f637"/>
      <stop offset="1" stop-color="#85f637"/>
    </linearGradient>
    <linearGradient id="linear-gradient-2" x1="38.34" y1="248.4" x2="458.45" y2="248.4" xlink:href="#linear-gradient"/>
  </defs>
  <g id="DESIGNED_BY_Kim_Zamorano" data-name="DESIGNED BY Kim Zamorano">
    <g>
      <g>
        <circle class="cls-3" cx="248.4" cy="248.4" r="248.4"/>
        <g>
          <path class="cls-2" d="M248.4,456.09c-55.48,0-107.64-21.6-146.87-60.83-39.23-39.23-60.83-91.39-60.83-146.87s21.6-107.64,60.83-146.87c39.23-39.23,91.39-60.83,146.87-60.83s107.64,21.6,146.87,60.83c39.23,39.23,60.83,91.39,60.83,146.87s-21.6,107.64-60.83,146.87c-39.23,39.23-91.39,60.83-146.87,60.83ZM248.4,44.47c-54.47,0-105.68,21.21-144.2,59.73-38.52,38.52-59.73,89.73-59.73,144.2s21.21,105.68,59.73,144.2c38.52,38.52,89.73,59.73,144.2,59.73s105.68-21.21,144.2-59.73c38.52-38.52,59.73-89.73,59.73-144.2s-21.21-105.68-59.73-144.2c-38.52-38.52-89.73-59.73-144.2-59.73Z"/>
          <path class="cls-1" d="M248.4,458.45c-56.11,0-108.86-21.85-148.53-61.52-39.67-39.67-61.52-92.42-61.52-148.53s21.85-108.86,61.52-148.53c39.67-39.67,92.42-61.52,148.53-61.52s108.86,21.85,148.53,61.52c39.67,39.67,61.52,92.42,61.52,148.53s-21.85,108.86-61.52,148.53c-39.67,39.67-92.42,61.52-148.53,61.52ZM248.4,46.82c-53.84,0-104.46,20.97-142.53,59.04-38.07,38.07-59.04,88.69-59.04,142.53s20.97,104.46,59.04,142.53c38.07,38.07,88.69,59.04,142.53,59.04s104.46-20.97,142.53-59.04c38.07-38.07,59.04-88.69,59.04-142.53s-20.97-104.46-59.04-142.53c-38.07-38.07-88.69-59.04-142.53-59.04Z"/>
        </g>
      </g>
      <g>
        <path class="cls-4" d="M284.23,273.48c-2.2,0-3.98,1.78-3.98,3.98v27.47c0,10.98-8.93,19.91-19.91,19.91h-42.99c-2.2,0-3.98,1.78-3.98,3.98v7.92s-9.51-9.5-9.51-9.5c-.62-1.41-2.02-2.39-3.65-2.39h-25.87c-10.98,0-19.91-8.93-19.91-19.91v-61.32c0-10.98,8.93-19.91,19.91-19.91h40.21c2.2,0,3.98-1.78,3.98-3.98s-1.78-3.98-3.98-3.98h-40.21c-15.37,0-27.87,12.5-27.87,27.87v61.32c0,15.37,12.5,27.87,27.87,27.87h23.83l16.35,16.35c.76.76,1.78,1.17,2.82,1.17.51,0,1.03-.1,1.52-.3,1.49-.62,2.46-2.07,2.46-3.68v-13.54h39.02c15.37,0,27.87-12.5,27.87-27.87v-27.47c0-2.2-1.78-3.98-3.98-3.98Z"/>
        <path class="cls-4" d="M292.45,146.47h-10.08c-31.91,0-57.87,25.96-57.87,57.87s25.96,57.87,57.87,57.87h10.08c4.98,0,9.91-.63,14.69-1.88l14.89,14.88c.76.76,1.78,1.17,2.82,1.17.51,0,1.03-.1,1.52-.3,1.49-.62,2.46-2.07,2.46-3.68v-23.04c6.3-5.1,11.54-11.55,15.21-18.75,4.17-8.18,6.29-17.02,6.29-26.26,0-31.91-25.96-57.87-57.87-57.87ZM322.44,244.23c-1,.75-1.59,1.93-1.59,3.18v15.37l-9.74-9.74c-.76-.76-1.77-1.17-2.81-1.17-.39,0-.78.06-1.17.18-4.74,1.46-9.68,2.19-14.68,2.19h-10.08c-27.52,0-49.91-22.39-49.91-49.91s22.39-49.91,49.91-49.91h10.08c27.52,0,49.91,22.39,49.91,49.91,0,15.82-7.26,30.36-19.91,39.89Z"/>
        <path class="cls-4" d="M305.34,190.03c-.57-8.34-7.29-15.05-15.63-15.63-4.73-.32-9.23,1.27-12.69,4.49-3.4,3.18-5.36,7.67-5.36,12.32,0,2.2,1.78,3.98,3.98,3.98s3.98-1.78,3.98-3.98c0-2.49,1-4.8,2.83-6.5,1.82-1.7,4.2-2.54,6.71-2.37,4.39.3,7.93,3.84,8.23,8.23.31,4.43-2.6,8.35-6.92,9.32-3.49.78-5.94,3.82-5.94,7.39v9.57c0,2.2,1.78,3.98,3.98,3.98s3.98-1.78,3.98-3.98v-9.25c8.02-1.94,13.41-9.28,12.83-17.57Z"/>
        <path class="cls-4" d="M291.34,229.79c-.74-.74-1.77-1.17-2.81-1.17s-2.07.43-2.81,1.17c-.74.74-1.17,1.77-1.17,2.81s.43,2.08,1.17,2.82c.74.74,1.77,1.16,2.81,1.16s2.07-.42,2.81-1.16c.74-.74,1.17-1.77,1.17-2.82s-.43-2.07-1.17-2.81Z"/>
        <path class="cls-4" d="M255.96,269.9h-84.01c-2.2,0-3.98,1.78-3.98,3.98s1.78,3.98,3.98,3.98h84.01c2.2,0,3.98-1.78,3.98-3.98s-1.78-3.98-3.98-3.98Z"/>
        <path class="cls-4" d="M258.77,293.36c-.74-.74-1.77-1.17-2.81-1.17s-2.07.43-2.81,1.17c-.74.74-1.17,1.77-1.17,2.81s.43,2.07,1.17,2.81c.74.74,1.77,1.17,2.81,1.17s2.07-.43,2.81-1.17c.74-.74,1.17-1.76,1.17-2.81s-.43-2.07-1.17-2.81Z"/>
        <path class="cls-4" d="M240.3,292.19h-68.35c-2.2,0-3.98,1.78-3.98,3.98s1.78,3.98,3.98,3.98h68.35c2.2,0,3.98-1.78,3.98-3.98s-1.78-3.98-3.98-3.98Z"/>
        <path class="cls-4" d="M230.08,247.6h-58.13c-2.2,0-3.98,1.78-3.98,3.98s1.78,3.98,3.98,3.98h58.13c2.2,0,3.98-1.78,3.98-3.98s-1.78-3.98-3.98-3.98Z"/>
      </g>
    </g>
  </g>
</svg>