<?xml version="1.0" encoding="UTF-8"?>
<svg id="Layer_2" data-name="Layer 2" xmlns="http://www.w3.org/2000/svg" xmlns:xlink="http://www.w3.org/1999/xlink" viewBox="0 0 496.79 496.79">
  <defs>
    <style>
      .cls-1 {
        fill: url(#linear-gradient-2);
      }

      .cls-2 {
        fill: url(#linear-gradient);
      }

      .cls-3 {
        fill: #fafffb;
      }

      .cls-4 {
        fill: #010f01;
      }
    </style>
    <linearGradient id="linear-gradient" x1="40.7" y1="248.4" x2="456.09" y2="248.4" gradientUnits="userSpaceOnUse">
      <stop offset="0" stop-color="#85f637"/>
      <stop offset="1" stop-color="#85f637"/>
    </linearGradient>
    <linearGradient id="linear-gradient-2" x1="38.34" y1="248.4" x2="458.45" y2="248.4" xlink:href="#linear-gradient"/>
  </defs>
  <g id="DESIGNED_BY_Kim_Zamorano" data-name="DESIGNED BY Kim Zamorano">
    <g>
      <g>
        <circle class="cls-3" cx="248.4" cy="248.4" r="248.4"/>
        <g>
          <path class="cls-2" d="M248.4,456.09c-55.48,0-107.64-21.6-146.87-60.83-39.23-39.23-60.83-91.39-60.83-146.87s21.6-107.64,60.83-146.87c39.23-39.23,91.39-60.83,146.87-60.83s107.64,21.6,146.87,60.83c39.23,39.23,60.83,91.39,60.83,146.87s-21.6,107.64-60.83,146.87c-39.23,39.23-91.39,60.83-146.87,60.83ZM248.4,44.47c-54.47,0-105.68,21.21-144.2,59.73-38.52,38.52-59.73,89.73-59.73,144.2s21.21,105.68,59.73,144.2c38.52,38.52,89.73,59.73,144.2,59.73s105.68-21.21,144.2-59.73c38.52-38.52,59.73-89.73,59.73-144.2s-21.21-105.68-59.73-144.2c-38.52-38.52-89.73-59.73-144.2-59.73Z"/>
          <path class="cls-1" d="M248.4,458.45c-56.11,0-108.86-21.85-148.53-61.52-39.67-39.67-61.52-92.42-61.52-148.53s21.85-108.86,61.52-148.53c39.67-39.67,92.42-61.52,148.53-61.52s108.86,21.85,148.53,61.52c39.67,39.67,61.52,92.42,61.52,148.53s-21.85,108.86-61.52,148.53c-39.67,39.67-92.42,61.52-148.53,61.52ZM248.4,46.82c-53.84,0-104.46,20.97-142.53,59.04-38.07,38.07-59.04,88.69-59.04,142.53s20.97,104.46,59.04,142.53c38.07,38.07,88.69,59.04,142.53,59.04s104.46-20.97,142.53-59.04c38.07-38.07,59.04-88.69,59.04-142.53s-20.97-104.46-59.04-142.53c-38.07-38.07-88.69-59.04-142.53-59.04Z"/>
        </g>
      </g>
      <g>
        <path class="cls-4" d="M246.66,314.62c-.7-.7-1.66-1.1-2.65-1.1s-1.95.4-2.65,1.1c-.7.7-1.1,1.66-1.1,2.65s.4,1.95,1.1,2.65c.7.7,1.66,1.1,2.65,1.1s1.95-.4,2.65-1.1c.7-.7,1.1-1.66,1.1-2.65s-.4-1.95-1.1-2.65Z"/>
        <path class="cls-4" d="M264.5,280.06v-27.56c0-1.24-.62-2.41-1.65-3.1-1.03-.7-2.34-.83-3.5-.37l-64.55,26h-20.79c-11.86,0-21.51,9.65-21.51,21.52s9.65,21.52,21.52,21.52h2.48v22.5c0,2.07,1.68,3.75,3.75,3.75h15.29c2.07,0,3.75-1.68,3.75-3.75v-20.69l60.08,24.16c.45.18.93.27,1.4.27.74,0,1.47-.22,2.1-.64,1.03-.7,1.65-1.86,1.65-3.1v-27.56c7.51-1.71,13.14-8.44,13.14-16.46,0-8.02-5.63-14.75-13.14-16.46ZM191.78,336.8h-7.8v-18.75h7.8v18.75h0ZM191.78,310.56h-17.77c-7.73,0-14.02-6.29-14.02-14.02s6.29-14.02,14.02-14.02h17.77v28.05ZM257,335h0l-57.73-23.22v-30.49l40.99-16.51v37.18c0,2.07,1.68,3.75,3.75,3.75s3.75-1.68,3.75-3.75v-40.19l9.25-3.72v76.96ZM264.5,305.13v-17.22c3.32,1.45,5.65,4.76,5.65,8.61s-2.33,7.16-5.65,8.61Z"/>
        <path class="cls-4" d="M313.37,292.89h-21.21c-2.07,0-3.75,1.68-3.75,3.75s1.68,3.75,3.75,3.75h21.21c2.07,0,3.75-1.68,3.75-3.75s-1.68-3.75-3.75-3.75Z"/>
        <path class="cls-4" d="M295.98,265.44c-1.46-1.46-3.83-1.46-5.3,0l-7.32,7.32c-1.46,1.46-1.46,3.83,0,5.3.73.73,1.69,1.1,2.65,1.1s1.92-.37,2.65-1.1l7.32-7.32c1.46-1.46,1.46-3.83,0-5.3Z"/>
        <path class="cls-4" d="M296.25,322.18l-7.56-7.56c-1.46-1.46-3.83-1.46-5.3,0-1.46,1.46-1.46,3.83,0,5.3l7.56,7.56c.73.73,1.69,1.1,2.65,1.1s1.92-.37,2.65-1.1c1.46-1.46,1.46-3.83,0-5.3Z"/>
        <path class="cls-4" d="M329.31,152.5h-69.68c-8.26,0-14.98,6.72-14.98,14.98v1.5h-62.93c-4.96,0-8.99,4.03-8.99,8.99v59.19c0,4.96,4.03,8.99,8.99,8.99h3.87v11.49c0,1.52.91,2.88,2.31,3.46.46.19.95.29,1.43.29.97,0,1.93-.38,2.65-1.1l14.14-14.14h74.41c4.96,0,8.99-4.03,8.99-8.99v-11.24h39.79c8.26,0,14.98-6.72,14.98-14.98v-43.45c0-8.26-6.72-14.98-14.98-14.98ZM282.03,237.16c0,.83-.67,1.5-1.5,1.5h-75.96c-.99,0-1.95.39-2.65,1.1l-8.84,8.84v-6.19c0-2.07-1.68-3.75-3.75-3.75h-7.62c-.83,0-1.5-.67-1.5-1.5v-59.19c0-.83.67-1.5,1.5-1.5h62.93v34.46c0,8.26,6.72,14.98,14.98,14.98h22.39v11.24ZM336.8,210.94c0,4.13-3.36,7.49-7.49,7.49h-69.68c-4.13,0-7.49-3.36-7.49-7.49v-43.45c0-4.13,3.36-7.49,7.49-7.49h69.68c4.13,0,7.49,3.36,7.49,7.49v43.45Z"/>
        <path class="cls-4" d="M309.52,185.96l-25.64-14.8c-1.16-.67-2.59-.67-3.75,0-1.16.67-1.87,1.91-1.87,3.24v29.6c0,1.34.71,2.58,1.87,3.24.58.33,1.23.5,1.87.5s1.29-.17,1.87-.5l25.64-14.8c1.16-.67,1.87-1.91,1.87-3.24s-.71-2.57-1.87-3.24ZM285.76,197.52v-16.63l14.4,8.31-14.4,8.31Z"/>
        <path class="cls-4" d="M232.85,191.83h-37.46c-2.07,0-3.75,1.68-3.75,3.75s1.68,3.75,3.75,3.75h37.46c2.07,0,3.75-1.68,3.75-3.75s-1.68-3.75-3.75-3.75Z"/>
        <path class="cls-4" d="M235.5,213.91c-.7-.7-1.66-1.1-2.65-1.1s-1.95.4-2.65,1.1c-.7.7-1.1,1.66-1.1,2.65s.4,1.95,1.1,2.65c.7.7,1.66,1.1,2.65,1.1s1.95-.4,2.65-1.1c.7-.7,1.1-1.66,1.1-2.65s-.4-1.95-1.1-2.65Z"/>
        <path class="cls-4" d="M218.8,212.81h-23.41c-2.07,0-3.75,1.68-3.75,3.75s1.68,3.75,3.75,3.75h23.41c2.07,0,3.75-1.68,3.75-3.75s-1.68-3.75-3.75-3.75Z"/>
      </g>
    </g>
  </g>
</svg>