<?xml version="1.0" encoding="UTF-8"?>
<svg id="Layer_2" data-name="Layer 2" xmlns="http://www.w3.org/2000/svg" xmlns:xlink="http://www.w3.org/1999/xlink" viewBox="0 0 496.79 496.79">
  <defs>
    <style>
      .cls-1 {
        fill: url(#linear-gradient-2);
      }

      .cls-2 {
        fill: url(#linear-gradient);
      }

      .cls-3 {
        fill: #fafffb;
      }

      .cls-4 {
        fill: #010f01;
      }
    </style>
    <linearGradient id="linear-gradient" x1="40.7" y1="248.4" x2="456.09" y2="248.4" gradientUnits="userSpaceOnUse">
      <stop offset="0" stop-color="#85f637"/>
      <stop offset="1" stop-color="#85f637"/>
    </linearGradient>
    <linearGradient id="linear-gradient-2" x1="38.34" y1="248.4" x2="458.45" y2="248.4" xlink:href="#linear-gradient"/>
  </defs>
  <g id="DESIGNED_BY_Kim_Zamorano" data-name="DESIGNED BY Kim Zamorano">
    <g>
      <g>
        <circle class="cls-3" cx="248.4" cy="248.4" r="248.4"/>
        <g>
          <path class="cls-2" d="M248.4,456.09c-55.48,0-107.64-21.6-146.87-60.83-39.23-39.23-60.83-91.39-60.83-146.87s21.6-107.64,60.83-146.87c39.23-39.23,91.39-60.83,146.87-60.83s107.64,21.6,146.87,60.83c39.23,39.23,60.83,91.39,60.83,146.87s-21.6,107.64-60.83,146.87c-39.23,39.23-91.39,60.83-146.87,60.83ZM248.4,44.47c-54.47,0-105.68,21.21-144.2,59.73-38.52,38.52-59.73,89.73-59.73,144.2s21.21,105.68,59.73,144.2c38.52,38.52,89.73,59.73,144.2,59.73s105.68-21.21,144.2-59.73c38.52-38.52,59.73-89.73,59.73-144.2s-21.21-105.68-59.73-144.2c-38.52-38.52-89.73-59.73-144.2-59.73Z"/>
          <path class="cls-1" d="M248.4,458.45c-56.11,0-108.86-21.85-148.53-61.52-39.67-39.67-61.52-92.42-61.52-148.53s21.85-108.86,61.52-148.53c39.67-39.67,92.42-61.52,148.53-61.52s108.86,21.85,148.53,61.52c39.67,39.67,61.52,92.42,61.52,148.53s-21.85,108.86-61.52,148.53c-39.67,39.67-92.42,61.52-148.53,61.52ZM248.4,46.82c-53.84,0-104.46,20.97-142.53,59.04-38.07,38.07-59.04,88.69-59.04,142.53s20.97,104.46,59.04,142.53c38.07,38.07,88.69,59.04,142.53,59.04s104.46-20.97,142.53-59.04c38.07-38.07,59.04-88.69,59.04-142.53s-20.97-104.46-59.04-142.53c-38.07-38.07-88.69-59.04-142.53-59.04Z"/>
        </g>
      </g>
      <g>
        <path class="cls-4" d="M335.49,217.85l-56.56-56.56c-6.12-6.12-16.08-6.12-22.2,0l-88.26,88.27c-3.06,3.06-4.59,7.08-4.59,11.1s1.53,8.04,4.59,11.1l14.19,14.19-15.58,15.58c-.7.7-1.05,1.62-1.05,2.53s.35,1.83,1.05,2.53c1.4,1.4,3.67,1.4,5.07,0l15.58-15.58,6.49,6.49-36.46,36.46c-.7.7-1.05,1.62-1.05,2.53s.35,1.83,1.05,2.53c1.4,1.4,3.67,1.4,5.07,0l36.46-36.46,25.75,25.75c6.12,6.12,16.08,6.12,22.2,0l88.26-88.27c2.97-2.97,4.6-6.91,4.6-11.1s-1.63-8.14-4.6-11.1ZM233.52,325.34c-1.26-.4-2.44-1.09-3.43-2.09l-56.56-56.56c-2.23-2.23-2.96-5.4-2.2-8.25h62.19v66.9ZM220.57,251.29l10.62-10.62c1.4-1.4,1.4-3.67,0-5.07s-3.67-1.4-5.07,0l-15.69,15.69h-10.44l32.38-32.38c1.4-1.4,1.4-3.67,0-5.07-1.4-1.4-3.67-1.4-5.07,0l-37.45,37.45h-13.01l81.58-81.58v73.05c0,4.71-3.83,8.54-8.54,8.54h-29.34ZM330.43,234.99l-88.27,88.26c-.46.46-.95.84-1.48,1.17v-65.98h9.23c8.66,0,15.7-7.04,15.7-15.7v-9.23h41.06l-20.73,20.73c-.7.7-1.05,1.62-1.05,2.53s.35,1.83,1.05,2.53c1.4,1.4,3.67,1.4,5.07,0l25.79-25.79s0,0,0,0h14.8c-.33.53-.73,1.02-1.18,1.48ZM265.62,226.35v-62.19c2.85-.76,6.02-.03,8.25,2.2l56.56,56.56c.98.98,1.69,2.15,2.1,3.43h-66.91Z"/>
        <path class="cls-4" d="M241.16,205.07c-.67-.67-1.59-1.05-2.53-1.05s-1.87.38-2.53,1.05c-.67.67-1.05,1.59-1.05,2.53s.38,1.87,1.05,2.53c.67.67,1.59,1.05,2.53,1.05s1.87-.38,2.53-1.05,1.05-1.59,1.05-2.53c0-.95-.38-1.87-1.05-2.53Z"/>
        <path class="cls-4" d="M162.83,310.84c-.67-.67-1.59-1.05-2.53-1.05s-1.87.38-2.53,1.05c-.67.67-1.05,1.59-1.05,2.53s.38,1.87,1.05,2.53c.67.67,1.59,1.05,2.53,1.05s1.87-.38,2.53-1.05c.67-.67,1.05-1.59,1.05-2.53s-.38-1.87-1.05-2.53Z"/>
        <path class="cls-4" d="M202.2,317.7c-1.4-1.4-3.67-1.4-5.07,0l-16.27,16.27c-.7.7-1.05,1.62-1.05,2.53s.35,1.83,1.05,2.53c1.4,1.4,3.67,1.4,5.07,0l16.27-16.27c1.4-1.4,1.4-3.67,0-5.07Z"/>
      </g>
    </g>
  </g>
</svg>