<?xml version="1.0" encoding="UTF-8"?>
<svg id="Layer_2" data-name="Layer 2" xmlns="http://www.w3.org/2000/svg" xmlns:xlink="http://www.w3.org/1999/xlink" viewBox="0 0 496.79 496.79">
  <defs>
    <style>
      .cls-1 {
        fill: url(#linear-gradient-2);
      }

      .cls-2 {
        fill: #010f01;
        fill-rule: evenodd;
      }

      .cls-3 {
        fill: url(#linear-gradient);
      }

      .cls-4 {
        fill: #fafffb;
      }
    </style>
    <linearGradient id="linear-gradient" x1="40.7" y1="248.4" x2="456.09" y2="248.4" gradientUnits="userSpaceOnUse">
      <stop offset="0" stop-color="#85f637"/>
      <stop offset="1" stop-color="#85f637"/>
    </linearGradient>
    <linearGradient id="linear-gradient-2" x1="38.34" y1="248.4" x2="458.45" y2="248.4" xlink:href="#linear-gradient"/>
  </defs>
  <g id="DESIGNED_BY_Kim_Zamorano" data-name="DESIGNED BY Kim Zamorano">
    <g>
      <g>
        <circle class="cls-4" cx="248.4" cy="248.4" r="248.4"/>
        <g>
          <path class="cls-3" d="M248.4,456.09c-55.48,0-107.64-21.6-146.87-60.83-39.23-39.23-60.83-91.39-60.83-146.87s21.6-107.64,60.83-146.87c39.23-39.23,91.39-60.83,146.87-60.83s107.64,21.6,146.87,60.83c39.23,39.23,60.83,91.39,60.83,146.87s-21.6,107.64-60.83,146.87c-39.23,39.23-91.39,60.83-146.87,60.83ZM248.4,44.47c-54.47,0-105.68,21.21-144.2,59.73-38.52,38.52-59.73,89.73-59.73,144.2s21.21,105.68,59.73,144.2c38.52,38.52,89.73,59.73,144.2,59.73s105.68-21.21,144.2-59.73c38.52-38.52,59.73-89.73,59.73-144.2s-21.21-105.68-59.73-144.2c-38.52-38.52-89.73-59.73-144.2-59.73Z"/>
          <path class="cls-1" d="M248.4,458.45c-56.11,0-108.86-21.85-148.53-61.52-39.67-39.67-61.52-92.42-61.52-148.53s21.85-108.86,61.52-148.53c39.67-39.67,92.42-61.52,148.53-61.52s108.86,21.85,148.53,61.52c39.67,39.67,61.52,92.42,61.52,148.53s-21.85,108.86-61.52,148.53c-39.67,39.67-92.42,61.52-148.53,61.52ZM248.4,46.82c-53.84,0-104.46,20.97-142.53,59.04-38.07,38.07-59.04,88.69-59.04,142.53s20.97,104.46,59.04,142.53c38.07,38.07,88.69,59.04,142.53,59.04s104.46-20.97,142.53-59.04c38.07-38.07,59.04-88.69,59.04-142.53s-20.97-104.46-59.04-142.53c-38.07-38.07-88.69-59.04-142.53-59.04Z"/>
        </g>
      </g>
      <g>
        <path class="cls-2" d="M199.6,214.28c2.09.69,4.34-.44,5.03-2.53,6.25-18.9,23.84-31.6,43.76-31.6,25.41,0,46.08,20.67,46.08,46.08,0,19.64-8.8,31.37-15.86,40.8-5.14,6.86-9.58,12.78-9.58,19.97,0,.47,0,.94-.02,1.41h-16.64v-9.15c0-2.2-1.78-3.98-3.98-3.98s-3.98,1.78-3.98,3.98v9.15h-16.64c-.01-.47-.02-.93-.02-1.41,0-7.19-4.44-13.11-9.58-19.97-5.21-6.94-11.1-14.82-14.03-26-.56-2.13-2.73-3.4-4.86-2.84-2.13.56-3.4,2.73-2.84,4.86,3.32,12.7,10,21.6,15.36,28.76,4.46,5.96,7.99,10.66,7.99,15.19,0,1.91.08,3.77.24,5.54v33.68c0,.11,0,.21.02.32,0,.02,0,.05,0,.08.01.15.04.29.07.43h0c1.38,6.49,4.92,12.39,9.97,16.61,5.14,4.31,11.65,6.68,18.3,6.68s13.16-2.37,18.3-6.68c5.05-4.22,8.59-10.12,9.97-16.61,0,0,0,0,0,0,.03-.14.05-.28.07-.43,0-.02,0-.05,0-.08,0-.11.02-.21.02-.32v-33.68c.16-1.77.24-3.63.24-5.54,0-4.53,3.53-9.24,7.99-15.19,7.37-9.83,17.45-23.28,17.45-45.57,0-29.8-24.25-54.04-54.04-54.04-23.37,0-43.99,14.9-51.32,37.07-.69,2.09.44,4.34,2.53,5.03ZM248.4,342.36c-8.1,0-15.4-4.9-18.85-12.17h37.71c-3.46,7.27-10.76,12.17-18.85,12.17ZM268.79,322.23h-40.8v-8.95h40.8v8.95ZM268.79,305.31h-40.8v-8.95h40.8v8.95Z"/>
        <path class="cls-2" d="M248.4,165.04c2.2,0,3.98-1.78,3.98-3.98v-10.61c0-2.2-1.78-3.98-3.98-3.98s-3.98,1.78-3.98,3.98v10.61c0,2.2,1.78,3.98,3.98,3.98Z"/>
        <path class="cls-2" d="M172.62,230.21h10.61c2.2,0,3.98-1.78,3.98-3.98s-1.78-3.98-3.98-3.98h-10.61c-2.2,0-3.98,1.78-3.98,3.98s1.78,3.98,3.98,3.98Z"/>
        <path class="cls-2" d="M266.62,234.27c0-2.2-1.78-3.98-3.98-3.98h-28.5c-2.2,0-3.98,1.78-3.98,3.98s1.78,3.98,3.98,3.98h10.27v9.15c0,2.2,1.78,3.98,3.98,3.98s3.98-1.78,3.98-3.98v-9.15h10.27c2.2,0,3.98-1.78,3.98-3.98Z"/>
        <path class="cls-2" d="M199.5,182.96c.78.78,1.8,1.17,2.82,1.17s2.04-.39,2.82-1.17c1.56-1.56,1.56-4.08,0-5.63l-7.5-7.5c-1.56-1.56-4.08-1.56-5.63,0-1.55,1.55-1.55,4.07,0,5.63l7.5,7.5Z"/>
        <path class="cls-2" d="M192.07,286.54c1.02,0,2.04-.39,2.82-1.17l7.5-7.5c1.56-1.56,1.56-4.07,0-5.63-1.56-1.56-4.08-1.56-5.63,0l-7.5,7.5c-1.55,1.56-1.55,4.08,0,5.63.78.78,1.8,1.17,2.82,1.17Z"/>
        <path class="cls-2" d="M294.48,184.13c1.02,0,2.04-.39,2.82-1.17l7.5-7.5c1.56-1.56,1.56-4.08,0-5.63-1.55-1.56-4.07-1.55-5.63,0l-7.5,7.5c-1.56,1.56-1.56,4.08,0,5.63.78.78,1.8,1.17,2.82,1.17Z"/>
        <path class="cls-2" d="M294.41,272.24c-1.56,1.55-1.56,4.07,0,5.63l7.5,7.5c.78.78,1.8,1.17,2.82,1.17s2.04-.39,2.82-1.17c1.56-1.55,1.56-4.07,0-5.63l-7.5-7.5c-1.56-1.56-4.08-1.56-5.63,0Z"/>
        <path class="cls-2" d="M313.56,230.21h10.61c2.2,0,3.98-1.78,3.98-3.98s-1.78-3.98-3.98-3.98h-10.61c-2.2,0-3.98,1.78-3.98,3.98s1.78,3.98,3.98,3.98Z"/>
        <path class="cls-2" d="M248.4,259.34c-2.19,0-3.98,1.79-3.98,3.98s1.79,3.98,3.98,3.98,3.98-1.79,3.98-3.98-1.79-3.98-3.98-3.98Z"/>
        <path class="cls-2" d="M202.31,226.23c0-2.19-1.79-3.98-3.98-3.98s-3.98,1.79-3.98,3.98,1.79,3.98,3.98,3.98,3.98-1.79,3.98-3.98Z"/>
      </g>
    </g>
  </g>
</svg>