<?xml version="1.0" encoding="UTF-8"?>
<svg id="Layer_2" data-name="Layer 2" xmlns="http://www.w3.org/2000/svg" xmlns:xlink="http://www.w3.org/1999/xlink" viewBox="0 0 496.79 496.79">
  <defs>
    <style>
      .cls-1 {
        fill: url(#linear-gradient-2);
      }

      .cls-2 {
        fill: url(#linear-gradient);
      }

      .cls-3 {
        fill: #fafffb;
      }

      .cls-4 {
        fill: #010f01;
      }
    </style>
    <linearGradient id="linear-gradient" x1="40.7" y1="248.4" x2="456.09" y2="248.4" gradientUnits="userSpaceOnUse">
      <stop offset="0" stop-color="#85f637"/>
      <stop offset="1" stop-color="#85f637"/>
    </linearGradient>
    <linearGradient id="linear-gradient-2" x1="38.34" y1="248.4" x2="458.45" y2="248.4" xlink:href="#linear-gradient"/>
  </defs>
  <g id="DESIGNED_BY_Kim_Zamorano" data-name="DESIGNED BY Kim Zamorano">
    <g>
      <g>
        <circle class="cls-3" cx="248.4" cy="248.4" r="248.4"/>
        <g>
          <path class="cls-2" d="M248.4,456.09c-55.48,0-107.64-21.6-146.87-60.83-39.23-39.23-60.83-91.39-60.83-146.87s21.6-107.64,60.83-146.87c39.23-39.23,91.39-60.83,146.87-60.83s107.64,21.6,146.87,60.83c39.23,39.23,60.83,91.39,60.83,146.87s-21.6,107.64-60.83,146.87c-39.23,39.23-91.39,60.83-146.87,60.83ZM248.4,44.47c-54.47,0-105.68,21.21-144.2,59.73-38.52,38.52-59.73,89.73-59.73,144.2s21.21,105.68,59.73,144.2c38.52,38.52,89.73,59.73,144.2,59.73s105.68-21.21,144.2-59.73c38.52-38.52,59.73-89.73,59.73-144.2s-21.21-105.68-59.73-144.2c-38.52-38.52-89.73-59.73-144.2-59.73Z"/>
          <path class="cls-1" d="M248.4,458.45c-56.11,0-108.86-21.85-148.53-61.52-39.67-39.67-61.52-92.42-61.52-148.53s21.85-108.86,61.52-148.53c39.67-39.67,92.42-61.52,148.53-61.52s108.86,21.85,148.53,61.52c39.67,39.67,61.52,92.42,61.52,148.53s-21.85,108.86-61.52,148.53c-39.67,39.67-92.42,61.52-148.53,61.52ZM248.4,46.82c-53.84,0-104.46,20.97-142.53,59.04-38.07,38.07-59.04,88.69-59.04,142.53s20.97,104.46,59.04,142.53c38.07,38.07,88.69,59.04,142.53,59.04s104.46-20.97,142.53-59.04c38.07-38.07,59.04-88.69,59.04-142.53s-20.97-104.46-59.04-142.53c-38.07-38.07-88.69-59.04-142.53-59.04Z"/>
        </g>
      </g>
      <g>
        <path class="cls-4" d="M299.96,211.13h-51.58c-1.97,0-3.58,1.61-3.58,3.58s1.61,3.58,3.58,3.58h51.58c1.97,0,3.58-1.61,3.58-3.58s-1.61-3.58-3.58-3.58Z"/>
        <path class="cls-4" d="M287.42,229.36c-.68-.68-1.58-1.04-2.54-1.04s-1.86.39-2.54,1.04c-.68.68-1.04,1.58-1.04,2.54s.39,1.86,1.04,2.54,1.58,1.04,2.54,1.04,1.86-.39,2.54-1.04c.68-.68,1.04-1.58,1.04-2.54s-.36-1.86-1.04-2.54Z"/>
        <path class="cls-4" d="M250.92,173.12c-.68-.68-1.58-1.04-2.54-1.04s-1.86.39-2.54,1.04-1.04,1.61-1.04,2.54.39,1.86,1.04,2.54c.68.68,1.58,1.04,2.54,1.04s1.86-.39,2.54-1.04c.68-.68,1.04-1.58,1.04-2.54s-.39-1.86-1.04-2.54Z"/>
        <path class="cls-4" d="M269.83,228.32h-21.45c-1.97,0-3.58,1.61-3.58,3.58s1.61,3.58,3.58,3.58h21.45c1.97,0,3.58-1.61,3.58-3.58s-1.61-3.58-3.58-3.58Z"/>
        <path class="cls-4" d="M299.96,249.81h-51.58c-1.97,0-3.58,1.61-3.58,3.58s1.61,3.58,3.58,3.58h51.58c1.97,0,3.58-1.61,3.58-3.58s-1.61-3.58-3.58-3.58Z"/>
        <path class="cls-4" d="M287.42,268.04c-.68-.68-1.58-1.04-2.54-1.04s-1.86.39-2.54,1.04c-.68.68-1.04,1.58-1.04,2.54s.39,1.86,1.04,2.54,1.58,1.04,2.54,1.04,1.86-.39,2.54-1.04c.68-.68,1.04-1.58,1.04-2.54s-.36-1.86-1.04-2.54Z"/>
        <path class="cls-4" d="M269.83,267h-21.45c-1.97,0-3.58,1.61-3.58,3.58s1.61,3.58,3.58,3.58h21.45c1.97,0,3.58-1.61,3.58-3.58s-1.61-3.58-3.58-3.58Z"/>
        <path class="cls-4" d="M299.96,288.49h-51.58c-1.97,0-3.58,1.61-3.58,3.58s1.61,3.58,3.58,3.58h51.58c1.97,0,3.58-1.61,3.58-3.58s-1.61-3.58-3.58-3.58Z"/>
        <path class="cls-4" d="M287.42,306.73c-.68-.68-1.58-1.04-2.54-1.04s-1.86.39-2.54,1.04c-.68.68-1.04,1.58-1.04,2.54s.39,1.86,1.04,2.54,1.58,1.04,2.54,1.04,1.86-.39,2.54-1.04c.68-.68,1.04-1.58,1.04-2.54s-.36-1.86-1.04-2.54Z"/>
        <path class="cls-4" d="M269.83,305.69h-21.45c-1.97,0-3.58,1.61-3.58,3.58s1.61,3.58,3.58,3.58h21.45c1.97,0,3.58-1.61,3.58-3.58s-1.61-3.58-3.58-3.58Z"/>
        <path class="cls-4" d="M306.83,170.65h-27.36c-3.94-3.76-9.31-6.09-15.19-6.09h-3.15c-2.36-4.76-7.27-7.88-12.75-7.88s-10.39,3.12-12.79,7.88h-3.15c-5.87,0-11.21,2.33-15.19,6.09h-27.33c-9.64,0-17.48,7.84-17.48,17.48v134.5c0,9.64,7.84,17.48,17.48,17.48h116.95c9.64,0,17.48-7.84,17.48-17.48v-134.5c-.04-9.64-7.88-17.48-17.51-17.48ZM232.44,171.73h5.59c1.61,0,3.01-1.07,3.44-2.61.86-3.12,3.69-5.27,6.91-5.27s6.05,2.15,6.91,5.27c.43,1.54,1.83,2.61,3.44,2.61h5.59c7.77,0,14.18,6.02,14.83,13.61h-61.54c.64-7.59,7.06-13.61,14.83-13.61ZM317.15,322.59c0,5.7-4.62,10.32-10.32,10.32h-116.91c-5.7,0-10.32-4.62-10.32-10.32v-134.46c0-5.7,4.62-10.32,10.32-10.32h22.31c-1.18,2.69-1.83,5.66-1.83,8.78v2.33c0,1.97,1.61,3.58,3.58,3.58h68.77c1.97,0,3.58-1.61,3.58-3.58v-2.33c0-3.12-.64-6.09-1.83-8.78h22.35c5.7,0,10.32,4.62,10.32,10.32v134.46h-.04Z"/>
        <path class="cls-4" d="M225.6,210.27c-1.4-1.4-3.65-1.4-5.05,0l-15.33,15.33-4.73-4.73c-1.4-1.4-3.65-1.4-5.05,0s-1.4,3.65,0,5.05l7.24,7.24c.72.72,1.61,1.04,2.54,1.04s1.83-.36,2.54-1.04l17.84-17.84c1.4-1.4,1.4-3.65,0-5.05Z"/>
        <path class="cls-4" d="M225.6,249.52c-1.4-1.4-3.65-1.4-5.05,0l-15.33,15.33-4.73-4.73c-1.4-1.4-3.65-1.4-5.05,0s-1.4,3.65,0,5.05l7.24,7.24c.72.72,1.61,1.04,2.54,1.04s1.83-.36,2.54-1.04l17.84-17.84c1.4-1.36,1.4-3.65,0-5.05Z"/>
        <path class="cls-4" d="M225.6,288.57c-1.4-1.4-3.65-1.4-5.05,0l-15.33,15.33-4.73-4.73c-1.4-1.4-3.65-1.4-5.05,0s-1.4,3.65,0,5.05l7.24,7.24c.72.72,1.61,1.04,2.54,1.04s1.83-.36,2.54-1.04l17.84-17.84c1.4-1.36,1.4-3.65,0-5.05Z"/>
      </g>
    </g>
  </g>
</svg>