<?xml version="1.0" encoding="UTF-8"?>
<svg id="Layer_2" data-name="Layer 2" xmlns="http://www.w3.org/2000/svg" xmlns:xlink="http://www.w3.org/1999/xlink" viewBox="0 0 496.79 496.79">
  <defs>
    <style>
      .cls-1 {
        fill: url(#linear-gradient-2);
      }

      .cls-2 {
        fill: url(#linear-gradient);
      }

      .cls-3 {
        fill: #fafffb;
      }

      .cls-4 {
        fill: #010f01;
      }
    </style>
    <linearGradient id="linear-gradient" x1="40.7" y1="248.4" x2="456.09" y2="248.4" gradientUnits="userSpaceOnUse">
      <stop offset="0" stop-color="#85f637"/>
      <stop offset="1" stop-color="#85f637"/>
    </linearGradient>
    <linearGradient id="linear-gradient-2" x1="38.34" y1="248.4" x2="458.45" y2="248.4" xlink:href="#linear-gradient"/>
  </defs>
  <g id="DESIGNED_BY_Kim_Zamorano" data-name="DESIGNED BY Kim Zamorano">
    <g>
      <g>
        <circle class="cls-3" cx="248.4" cy="248.4" r="248.4"/>
        <g>
          <path class="cls-2" d="M248.4,456.09c-55.48,0-107.64-21.6-146.87-60.83-39.23-39.23-60.83-91.39-60.83-146.87s21.6-107.64,60.83-146.87c39.23-39.23,91.39-60.83,146.87-60.83s107.64,21.6,146.87,60.83c39.23,39.23,60.83,91.39,60.83,146.87s-21.6,107.64-60.83,146.87c-39.23,39.23-91.39,60.83-146.87,60.83ZM248.4,44.47c-54.47,0-105.68,21.21-144.2,59.73-38.52,38.52-59.73,89.73-59.73,144.2s21.21,105.68,59.73,144.2c38.52,38.52,89.73,59.73,144.2,59.73s105.68-21.21,144.2-59.73c38.52-38.52,59.73-89.73,59.73-144.2s-21.21-105.68-59.73-144.2c-38.52-38.52-89.73-59.73-144.2-59.73Z"/>
          <path class="cls-1" d="M248.4,458.45c-56.11,0-108.86-21.85-148.53-61.52-39.67-39.67-61.52-92.42-61.52-148.53s21.85-108.86,61.52-148.53c39.67-39.67,92.42-61.52,148.53-61.52s108.86,21.85,148.53,61.52c39.67,39.67,61.52,92.42,61.52,148.53s-21.85,108.86-61.52,148.53c-39.67,39.67-92.42,61.52-148.53,61.52ZM248.4,46.82c-53.84,0-104.46,20.97-142.53,59.04-38.07,38.07-59.04,88.69-59.04,142.53s20.97,104.46,59.04,142.53c38.07,38.07,88.69,59.04,142.53,59.04s104.46-20.97,142.53-59.04c38.07-38.07,59.04-88.69,59.04-142.53s-20.97-104.46-59.04-142.53c-38.07-38.07-88.69-59.04-142.53-59.04Z"/>
        </g>
      </g>
      <g>
        <path class="cls-4" d="M332.69,191.07c-1.24-1.82-3.71-2.29-5.53-1.05s-2.29,3.72-1.05,5.53c10.63,15.61,16.25,33.88,16.25,52.84,0,51.81-42.15,93.96-93.96,93.96s-93.96-42.15-93.96-93.96,42.15-93.96,93.96-93.96c19.38,0,37.98,5.85,53.79,16.91,1.8,1.26,4.28.82,5.54-.98,1.26-1.8.82-4.28-.98-5.54-17.16-12-37.34-18.35-58.36-18.35-27.23,0-52.82,10.6-72.07,29.85-19.25,19.25-29.85,44.85-29.85,72.07s10.6,52.82,29.85,72.07c19.25,19.25,44.85,29.85,72.07,29.85s52.82-10.6,72.07-29.85c19.25-19.25,29.85-44.85,29.85-72.07,0-20.57-6.1-40.39-17.63-57.32Z"/>
        <path class="cls-4" d="M320.61,176.46l-.14-.14c-1.56-1.55-4.08-1.55-5.63,0-1.55,1.56-1.55,4.08,0,5.63l.14.14c.78.78,1.8,1.17,2.82,1.17s2.04-.39,2.82-1.17c1.55-1.56,1.55-4.08,0-5.63Z"/>
        <path class="cls-4" d="M226.08,248.8h-12.08c1.13-19.28,10.54-22.47,17.72-23.12,2.05-.19,3.62-1.91,3.62-3.97v-22.29c0-1.09-.45-2.14-1.25-2.89s-1.87-1.14-2.96-1.08c-15.96.9-28.17,6.43-36.31,16.44-7.99,9.83-12.04,24.11-12.04,42.43v33.48c0,7.47,6.08,13.55,13.55,13.55h29.73c7.47,0,13.55-6.08,13.55-13.55v-25.44c0-7.47-6.08-13.55-13.55-13.55ZM231.67,287.8c0,3.08-2.51,5.59-5.59,5.59h-29.73c-3.08,0-5.59-2.51-5.59-5.59v-33.48c0-16.44,3.45-29.03,10.25-37.41,6.05-7.45,14.7-11.77,26.37-13.15v14.52c-10.51,2.17-21.46,10.25-21.46,34.5,0,2.2,1.78,3.98,3.98,3.98h16.18c3.08,0,5.59,2.51,5.59,5.59v25.44Z"/>
        <path class="cls-4" d="M300.44,248.8h-12.08c1.13-19.28,10.54-22.47,17.72-23.12,2.05-.19,3.62-1.91,3.62-3.97v-22.29c0-1.09-.45-2.14-1.25-2.89-.8-.75-1.87-1.14-2.96-1.08-15.96.9-28.17,6.43-36.31,16.44-7.99,9.83-12.04,24.11-12.04,42.43v1.38c0,2.2,1.78,3.98,3.98,3.98s3.98-1.78,3.98-3.98v-1.38c0-16.44,3.45-29.03,10.25-37.41,6.05-7.45,14.7-11.77,26.37-13.15v14.52c-10.51,2.17-21.46,10.25-21.46,34.5,0,2.2,1.78,3.98,3.98,3.98h16.18c3.08,0,5.59,2.51,5.59,5.59v25.44c0,3.08-2.51,5.59-5.59,5.59h-29.73c-3.08,0-5.59-2.51-5.59-5.59v-2.18c0-2.2-1.78-3.98-3.98-3.98s-3.98,1.78-3.98,3.98v2.18c0,7.47,6.08,13.55,13.55,13.55h29.73c7.47,0,13.55-6.08,13.55-13.55v-25.44c0-7.47-6.08-13.55-13.55-13.55Z"/>
        <path class="cls-4" d="M261.14,265.75c-2.2,0-3.98,1.78-3.98,3.98v.17c0,2.2,1.78,3.98,3.98,3.98s3.98-1.78,3.98-3.98v-.17c0-2.2-1.78-3.98-3.98-3.98Z"/>
      </g>
    </g>
  </g>
</svg>