<?xml version="1.0" encoding="UTF-8"?>
<svg id="Layer_2" data-name="Layer 2" xmlns="http://www.w3.org/2000/svg" viewBox="0 0 726.86 455.85">
  <defs>
    <style>
      .cls-1 {
        fill: #010f01;
      }
    </style>
  </defs>
  <g id="DESIGNED_BY_Kim_Zamorano" data-name="DESIGNED BY Kim Zamorano">
    <g>
      <g>
        <path d="M128.61,89.26v-.81c17.09-6.51,27.13-18.72,27.13-37.99,0-15.46-5.7-27.94-16.82-37.17C128.61,4.88,113.68,0,93.61,0H0v193.99h95.78c20.34,0,36.35-4.88,47.75-13.84,12.75-9.77,19.8-23.87,19.8-43.41,0-23.06-13.56-40.97-34.72-47.48ZM47.48,37.98h39.34c14.11,0,23.06,7.06,23.06,19.27s-9.49,19.53-23.33,19.53h-39.07v-38.8ZM90.35,155.46h-42.87v-46.12h42.33c14.65,0,26.04,7.87,26.04,23.33,0,13.84-9.76,22.79-25.5,22.79Z"/>
        <path d="M298.92,75.75c-1.61-1.89-3.34-3.7-5.17-5.4-.91-.86-1.85-1.69-2.82-2.49-1.87-1.57-3.84-3.03-5.9-4.39-3.59-2.38-7.46-4.45-11.57-6.17-4.72,11.9-9.03,22.82-12.96,32.83.95.98,1.83,2.05,2.66,3.2,1.64,2.28,3.05,4.89,4.19,7.78.56,1.39,1.06,2.86,1.5,4.38,1.02,3.51,1.73,7.36,2.11,11.5.24,2.5.36,5.11.36,7.81,0,24.58-9.78,41.18-28.09,42.02-.49.03-.99.04-1.49.04-2.64,0-5.12-.32-7.41-.93-6.52-1.74-11.63-5.87-15.25-11.89h0c-2.13-3.53-3.75-7.69-4.85-12.39-1.19-5.03-1.79-10.69-1.79-16.85,0-23.13,8.44-39.42,24.69-41.97,1.47-.23,3.01-.35,4.61-.35s3.21.12,4.72.37c3.59-8.78,7.34-17.76,11.24-26.97l.04-.09c.46-.99.53-1.59.53-2.1,0-.31-.02-.62-.05-.94-3.08-.57-6.25-.99-9.52-1.23-2.19-.16-4.42-.24-6.69-.24-44.49,0-74.34,31.74-74.34,73.52,0,26.04,11.59,48.18,31.09,61.15,2.49,1.67,5.1,3.18,7.84,4.53,4.22,2.08,8.71,3.77,13.47,5.05,2.76.74,5.61,1.34,8.54,1.79,4.29.67,8.77,1.01,13.4,1.01,44.77,0,74.07-31.74,74.07-73.53,0-19.16-6.16-36.2-17.16-49.05Z"/>
        <path d="M392.05,106.35c-12.28-2.26-23.65-3.61-29.41-7.52-2.51-1.71-3.96-3.9-3.96-6.86,0-4.33,2.09-7.51,5.53-9.61,3.46-2.12,8.29-3.14,13.73-3.14,12.21,0,20.63,3.8,22.25,16.28h40.7c-2.17-27.4-23.33-44.49-62.67-44.49-4.88,0-9.63.34-14.19,1.01-3.15.46-6.21,1.08-9.15,1.86-.65.17-1.3.35-1.94.54-3.2.94-6.25,2.07-9.12,3.4-15.41,7.11-25.57,19.75-25.57,37.68s7.32,27.3,17.81,33.42c2.62,1.54,5.44,2.83,8.39,3.94.8.3,1.62.59,2.44.87,2.84.95,5.78,1.75,8.76,2.46,4.13.97,8.35,1.75,12.53,2.45,18.45,3.26,35.27,4.61,35.27,17.09,0,8.96-8.41,13.84-21.71,13.84-14.65,0-23.87-6.78-25.5-20.62h-3.95c-3.84,13.61-8.39,26.95-13.39,39.67,11.14,6.3,25.74,9.71,43.11,9.71,36.36,0,63.22-15.74,63.22-46.12,0-35.55-28.76-41.79-53.18-45.86ZM314.46,148.95c.43,9.55,3.18,17.94,8.01,24.96,1.87,2.72,4.04,5.23,6.51,7.52.8.74,1.63,1.47,2.5,2.16,4.24-11.19,8.12-22.82,11.45-34.64h-28.47Z"/>
        <path d="M543.99,141.35c-1.9,15.74-10.31,23.88-24.15,23.88-18.99,0-28.49-15.74-28.49-40.43s9.5-40.96,28.49-40.96c12.48,0,20.08,8.13,22.79,20.62h42.6c-4.07-31.21-28.22-53.18-65.93-53.18-43.95,0-72.71,31.74-72.71,73.52s29.03,73.53,73.79,73.53c39.35,0,64.85-24.96,65.93-56.98h-42.32Z"/>
        <path d="M678.56,51.01c-19.26,0-31.2,7.86-41.24,21.16h-.81V0h-44.23v193.99h44.23v-76.78c0-17.1,9.77-29.31,24.42-29.31s21.7,10.04,21.7,24.69v81.4h44.23v-90.35c0-30.93-17.91-52.63-48.3-52.63Z"/>
      </g>
      <g>
        <path class="cls-1" d="M215.17,206.48c-9.99,22.72-19.59,47.33-28.37,73.64l-1.88,5.63c-6.89,20.59-11.86,35.46-17.13,58.17-4.7,21.08-8.95,42.03-12.9,61.68-.1.48-.2,1-.3,1.54-.79,4.08-1.87,9.65-4.71,12.51-1.15,1.16-2.58,1.87-4.4,1.87h-1.34l-.34-.09c-4.25-1.02-6.4-5.17-6.4-12.31,0-4.76.97-10.1,1.67-13.99.22-1.17.41-2.22.55-3.11,6.73-37.64,15.88-66.18,25.57-96.4,4.95-15.45,10.07-31.43,15.05-49.24,4.59-16.21,9.35-32.02,14.41-47.78,1.25.73,2.53,1.41,3.84,2.05,4.22,2.09,8.71,3.78,13.47,5.05,1.06.28,2.13.55,3.21.78Z"/>
        <path class="cls-1" d="M210.97,164.2c-1.06-1.75-2-3.67-2.81-5.73h0c1.98-5.58,4-11.18,6.07-16.82,5.84-15.88,12.1-32.11,18.91-48.99,1.3-3.25,2.64-6.53,3.99-9.83,2.75-6.75,5.6-13.61,8.55-20.6.87-2.11,1.77-4.22,2.67-6.35l.04-.09c.46-.99.53-1.59.53-2.1,0-.71-.1-1.38-.22-2.17-.01-.03-.01-.07-.02-.11-.17-1.07-.36-2.29-.36-3.87,0-2.65.68-5.61,2.01-8.81,1.79-4.37,8.32-16.64,13.1-19.56,1.21-.78,2.54-1.19,3.9-1.19,1.78,0,3.37.65,4.62,1.77,1.65,1.5,2.67,3.82,2.67,6.52,0,.81-.03,1.66-.28,2.49-.67,4.14-2.16,8.17-3.5,11.63l-1.32,3.32c-1.46,3.66-2.88,7.23-4.27,10.72-4.34,10.95-8.35,21.09-12.05,30.47-13.33,33.88-22.53,57.86-28.84,74.8,9.4-18.39,19.06-35.5,28.98-51.28.81-1.29,1.62-2.58,2.44-3.85,1.33,2.01,2.49,4.26,3.46,6.71.56,1.4,1.06,2.86,1.5,4.38.18.63.35,1.26.51,1.91-8.87,14.5-17.94,30.66-26.92,48.36-1.79,3.52-3.57,7.11-5.35,10.75-.95-.15-1.87-.34-2.76-.58-6.52-1.73-11.63-5.86-15.25-11.89h0Z"/>
        <path class="cls-1" d="M338.78,143.9c1.67.56,3.38,1.07,5.12,1.53-.31,1.18-.64,2.35-.97,3.52-3.33,11.82-7.21,23.45-11.45,34.64-10.63,28.06-23.56,53.39-36.08,72.35-4.39,6.64-27.26,39.92-45.93,44.04-.99.21-2.02.39-3.05.52-1.6.21-3.21.32-4.73.32-10.76,0-20.6-5.09-29.24-15.11-5.48-6.33-8.26-15.42-8.26-27.01,0-.55.01-1.1.03-1.65.08-3.4.41-6.89.78-10.44l.02-.18c.2-1.57.74-5.76,4.66-5.76h.57l.13.03.23.06c1.63.42,3.58,1.78,3.58,5.89v.25c-.11,1.11-.21,2.58-.29,4.3h0c-.07,1.48-.11,3.13-.11,4.93,0,12.84,3.77,21,11.86,25.67,6.17,3.45,11.07,4.99,15.84,4.99,1.73,0,3.22-.15,4.66-.49.47-.11.93-.24,1.4-.39,15.13-4.6,33.09-29.91,38.24-37.55,10.74-16.22,21.8-37.25,31.34-60.66,1.84-4.51,3.62-9.12,5.34-13.79,1.79-4.85,3.5-9.79,5.11-14.78,1.1-3.37,2.15-6.76,3.15-10.18.72-2.44,1.43-4.9,2.09-7.36,1.15.51,2.32.99,3.52,1.44.8.3,1.62.6,2.44.87Z"/>
        <path class="cls-1" d="M350.57,102.14c0-3.27,1.19-5.88,3.25-7.86-.45,4.17-1,8.37-1.65,12.58-1.03-1.32-1.6-2.87-1.6-4.72Z"/>
        <path class="cls-1" d="M355.3,62.29c-2.93.44-5.78,1.03-8.53,1.77-.65.16-1.3.34-1.94.53-.3.09-.59.18-.89.28v-3.96c-.03-.84-.06-1.89-.12-3.09-.33-6.43-1.41-17.08-6.05-20.99-1.12-.95-2.46-1.5-4.04-1.5h-.48c-3.69.34-12.27,3.71-28.76,22.1-3.43,3.89-7.03,8.2-10.74,12.92-2.57,3.27-5.21,6.73-7.89,10.38-.07-.07-.15-.14-.22-.21-.91-.86-1.85-1.69-2.82-2.49-.47-.39-.94-.78-1.42-1.16-.48-.38-.97-.75-1.46-1.11-.93-.7-1.89-1.36-2.86-2.01,2.63-3.52,5.28-6.94,7.95-10.28,3.82-4.77,7.66-9.36,11.53-13.75,10.25-11.68,23.61-25.26,36.06-26.6l.31-.02h1.59c1.59,0,3.05.2,4.41.59,10.77,3,14.68,17.15,15.95,30.19.09.99.17,1.97.24,2.94.1,1.83.15,3.66.18,5.47Z"/>
        <path class="cls-1" d="M723.75,256.3h-.91l-.63.32c-.84.44-1.89,1.38-5.08,4.3-9.04,8.26-31.37,28.62-50.98,33.16-2.53.59-5.01.91-7.41.91h-.2c-.89,0-2.25,0-2.25-4,0-6.87,4.23-18.34,7.04-25.93,1.28-3.48,2.31-6.25,2.78-8.08.31-.96.31-1.99.31-2.89,0-4.51-2.12-7.53-5.29-7.53-.62,0-1.11.18-1.49.34h-.03c-.5.14-.93.35-1.32.59-1.85-2.51-4.47-4.37-7.45-5.32-1.47-.48-3.02-.73-4.62-.73-4.88,0-9.73,2.31-13.33,6.38-2.3,2.65-4.4,5.43-6.3,8.33-.57.06-1.19.16-1.88.26l-1.17.17-.12.03c-16.16,3.03-25.99,5.21-34.03,7.66-3.86,1.17-7.31,2.41-10.86,3.82,3.33-7.77,5.4-16.05,5.4-22.21,0-5.68-1.94-9.68-5.35-11.41-1.25-.65-2.7-.98-4.32-.98-1.17,0-2.2.23-3.3.47l-.7.16c-9.25,2.73-22.72,17.87-24.22,19.57-2.32,2.62-4.58,5.24-6.78,7.89-9.21,11.12-17.4,22.62-25.39,35,8.78-20.27,18.11-40.47,28.88-59.17,1.18-1.84,2.02-3.56,2.65-5.41.36-.99.36-1.86.36-2.77,0-2.32-.83-4.29-2.2-5.58-1.12-1.07-2.6-1.69-4.29-1.69h-.59l-.47.04c-6.37,1.02-12.58,10.45-14.97,14.48-4.57,7.86-8.5,14.82-12.02,21.72-15.77,15.36-46.54,36.53-64.88,42.32-.2.07-.41.13-.61.18-1.67.48-3.36.7-5.25.7-8.86,0-9.82-7.64-9.82-10.93s.71-6.62,2.06-9.85c.75.14,1.47.21,2.19.21,2.51,0,5.09-.9,7.48-2.61l2.38-1.74c5.21-3.78,10.59-7.7,15.45-11.95,2.99-2.48,5.02-6.16,6.98-9.73l.44-.79c1.41-2.42,2.19-5.49,2.19-8.64,0-4.69-1.96-8.36-5.08-10.06-1.24-.68-2.65-1.05-4.2-1.05s-4.1.2-6.84,1.94c-9.34,5.04-16.99,12.27-22.87,21.59-.06.04-.12.08-.19.12-.72.47-1.47.95-2.22,1.51-5.39,3.91-14.75,14.62-26.61,28.18-18.65,21.33-45.75,52.33-61.6,59.1-2.03.87-3.88,1.34-5.5,1.34-.49,0-1.11-.12-1.89-.37-1.19-.38-4.79-1.55-5.34-8.87v-1.43c0-13.76,10.21-32.71,17.66-46.55,4.59-8.54,7.24-13.56,7.74-16.73.45-2.06.45-3.83.45-5.4,0-10.09-6.35-14.3-12.51-17.22.92-2.03,1.37-4.13,1.37-6.35,0-4.43-2.08-7.7-4.85-9.44-1.48-.93-3.15-1.42-4.81-1.42-2.55,0-4.99,1.25-6.68,3.43l-.13.19c-3.54,5.36-5.65,11.8-5.65,17.23,0,3.17.76,5.82,2.2,7.68l.17.22.21.18c2.35,2.06,5.5,3.12,8.54,4.14,4.6,1.54,6.77,2.48,6.77,4.38,0,.09-.03.18-.04.27-.05.25-.11.57-.14.95-.74,3.27-3.27,8.8-6.18,15.19-6.04,13.25-14.31,31.39-14.31,46.43,0,3.4.28,6.07.88,8.39,1.33,5.41,3.95,11.87,12.39,13.9,1.19.35,2.29.35,3.36.35,1.55,0,3.17-.23,4.84-.67,17.31-4.52,40.74-31.3,63.46-57.29,7.02-8.02,13.81-15.79,19.89-22.21-1.2,3.71-1.84,7.96-1.85,12.32v.11c0,14.07,6.84,23.15,17.42,23.15h1.38c1.22-.08,2.5-.25,3.84-.51,16.88-3.26,42.16-20.37,59.55-35.2-1.69,3.78-3.36,7.56-4.99,11.35-23.07,53.34-40.81,107.5-55.37,154.52-.42,1.1-.96,2.77-.96,4.8v.51l.02.3c.67,6.51,3.85,7.48,5.68,7.48,2.85,0,4.82-2.33,5.05-2.63.02-.01.03-.02.03-.03l.2-.3c3.3-5.54,4.4-10.4,5.29-14.3.42-1.86.78-3.46,1.3-4.89,1.25-3.39,2.48-6.79,3.71-10.18,4.15-11.44,8.43-23.26,13.33-34.51,17.88-41.5,39.9-79.49,65.45-112.92,8.46-11.19,20.19-23.99,29.11-28.3-.1.44-.21.9-.3,1.37-.41,2.09-1.03,4.5-1.79,7.02h0c-2.28,7.55-5.86,16-9.41,19.14-9.12,5.78-16.04,12.44-25.09,24.21,0,.01-.02.03-.03.04-.3.38-.59.77-.89,1.16-4.7,6.06-8.43,11.92-11.29,17.78-.88,1.81-1.69,3.62-2.41,5.43-1.23,2.89-1.82,5.78-1.82,8.82,0,6.08,3.56,8.8,7.08,8.8,1.64,0,3.33-.51,5.11-1.54,1.1-.65,2.24-1.5,3.42-2.56,16.48-15.14,23.84-27.94,34.02-45.67,1.5-2.62,3.08-5.37,4.76-8.26,9.43-6.28,36.05-13.96,49.25-17.02-.4.88-.79,1.77-1.15,2.67-.25.6-.5,1.21-.73,1.82l-.04.13c-.94,2.89-1.75,5.71-2.63,9.13-.23.89-.49,1.9-.49,3.04,0,5.44,4.09,8.8,7.88,8.8.71,0,1.59,0,2.71-.48.69-.28,1.42-.65,2.21-1.08,5.11-2.82,12.08-8.48,18.25-13.71-.65,2.95-1.1,5.88-1.3,8.62-.09,1.11-.13,2.19-.13,3.23,0,10.48,4.82,16.49,13.24,16.49h1.36c1.25-.07,2.56-.25,3.94-.53,19.46-3.95,50.35-27.61,62.01-42.88.24-.31.42-.63.53-.93.24-.6.28-1.11.28-1.36,0-1.87-1.28-3.17-3.11-3.17ZM635.73,269.39c2.75-4.54,6.91-9.79,9.68-11.58l.21-.14c.46-.36.82-.42,1-.42.24,0,.52.16.8.46-4.17,5.04-7.53,8.23-11.69,11.68Z"/>
      </g>
    </g>
  </g>
</svg>