<?xml version="1.0" encoding="UTF-8"?>
<svg id="Layer_2" data-name="Layer 2" xmlns="http://www.w3.org/2000/svg" viewBox="0 0 1373.19 480.24">
  <defs>
    <style>
      .cls-1 {
        fill: #010f01;
      }
    </style>
  </defs>
  <g id="DESIGNED_BY_Kim_Zamorano" data-name="DESIGNED BY Kim Zamorano">
    <g>
      <path class="cls-1" d="M128.6,228.89v-.81c17.09-6.51,27.13-18.72,27.13-37.98,0-15.47-5.7-27.95-16.82-37.17-10.31-8.41-25.23-13.29-45.31-13.29H0v193.99h95.77c20.35,0,36.36-4.88,47.75-13.84,12.75-9.77,19.81-23.88,19.81-43.41,0-23.06-13.57-40.97-34.73-47.48ZM47.48,177.61h39.34c14.11,0,23.06,7.05,23.06,19.26s-9.5,19.53-23.33,19.53h-39.07v-38.8ZM90.35,295.09h-42.87v-46.12h42.33c14.65,0,26.05,7.87,26.05,23.33,0,13.84-9.77,22.79-25.5,22.79Z"/>
      <path class="cls-1" d="M242.01,190.91c-44.5,0-74.34,31.74-74.34,73.53s29.85,73.53,74.34,73.53,74.07-31.74,74.07-73.53-29.3-73.53-74.07-73.53ZM241.74,306.49c-19.26,0-29.3-16.82-29.3-42.05s10.04-42.33,29.3-42.33,29.57,17.09,29.57,42.33-10.31,42.05-29.57,42.05Z"/>
      <path class="cls-1" d="M392.05,245.98c-17.64-3.26-33.37-4.61-33.37-14.38,0-8.68,8.41-12.75,19.26-12.75,12.21,0,20.62,3.8,22.25,16.28h40.7c-2.17-27.4-23.33-44.5-62.67-44.5-32.83,0-59.96,15.19-59.96,44.5,0,32.56,25.78,39.07,49.92,43.14,18.45,3.26,35.27,4.61,35.27,17.09,0,8.95-8.41,13.84-21.71,13.84-14.65,0-23.88-6.78-25.5-20.62h-41.78c1.36,30.66,26.86,49.38,67.56,49.38,36.36,0,63.22-15.74,63.22-46.12,0-35.54-28.76-41.78-53.18-45.85Z"/>
      <path class="cls-1" d="M519.84,304.86c-18.99,0-28.49-15.74-28.49-40.43s9.5-40.97,28.49-40.97c12.48,0,20.08,8.14,22.79,20.62h42.6c-4.07-31.2-28.22-53.18-65.93-53.18-43.95,0-72.71,31.74-72.71,73.53s29.03,73.53,73.8,73.53c39.34,0,64.84-24.96,65.93-56.98h-42.33c-1.9,15.74-10.31,23.88-24.15,23.88Z"/>
      <path class="cls-1" d="M726.85,333.62v-90.35c0-30.93-17.91-52.64-48.29-52.64-19.26,0-31.2,7.87-41.24,21.16h-.81v-72.17h-44.22v193.99h44.22v-76.78c0-17.09,9.77-29.3,24.42-29.3s21.71,10.04,21.71,24.69v81.4h44.22Z"/>
      <path class="cls-1" d="M965.49,42.6c-1.17-16.87-6.04-36.98-22.59-36.98h-1.74l-.34.02c-13.65,1.47-28.31,16.36-39.55,29.17-27.8,31.59-54.35,72.05-79.18,120.63,9.45-25.36,24.81-65.13,49.53-127.22l1.45-3.64c1.47-3.8,3.1-8.22,3.84-12.76.27-.91.3-1.84.3-2.73,0-5.19-3.43-9.1-7.99-9.1-1.49,0-2.95.46-4.28,1.31-5.25,3.2-12.41,16.66-14.36,21.45-1.46,3.51-2.21,6.76-2.21,9.66,0,1.73.21,3.07.39,4.25.14.9.26,1.68.26,2.49,0,.56-.07,1.22-.58,2.31l-.04.1c-32.85,77.48-55.19,139.96-74.7,208.93-5.47,19.53-11.08,37.05-16.51,54-10.62,33.14-20.65,64.45-28.04,105.73-.15.97-.36,2.13-.6,3.41-.78,4.27-1.84,10.12-1.84,15.35,0,7.83,2.36,12.38,7.02,13.5l.37.09h1.47c6.95,0,8.78-9.49,9.99-15.76.12-.59.22-1.16.33-1.7,4.33-21.55,9-44.53,14.15-67.64,5.78-24.91,11.23-41.22,18.78-63.79l2.06-6.18c38.83-116.28,92.14-202.42,129.07-244.24,18.09-20.17,27.5-23.86,31.55-24.23h.52c10.25,0,10.97,21.05,11.2,28.05v6.13c0,70.84-33.06,153.06-63.77,199.45-5.64,8.39-25.35,36.13-41.93,41.18-2.08.67-4.13.97-6.65.97-5.24,0-10.6-1.7-17.37-5.47-8.88-5.13-13.01-14.08-13.01-28.15,0-4.29.23-7.87.42-10.12v-.27c.01-4.51-2.12-6-3.91-6.46l-.39-.1h-.62c-4.3,0-4.89,4.59-5.11,6.32l-.02.19c-.47,4.53-.89,8.95-.89,13.26,0,12.71,3.05,22.68,9.06,29.63,9.47,10.99,20.26,16.57,32.07,16.57,2.75,0,5.78-.32,8.54-.92,20.47-4.51,45.55-41.02,50.38-48.29,31.65-47.95,65.71-132.99,65.71-206.36,0-3.91,0-7.96-.22-12.02Z"/>
      <path class="cls-1" d="M1369.78,261.38h-.99l-.69.35c-.92.47-2.07,1.51-5.58,4.71-11.2,10.22-40.95,37.37-64.03,37.37h-.22c-.99,0-2.48,0-2.48-4.4,0-7.53,4.65-20.11,7.72-28.44,1.41-3.82,2.53-6.85,3.05-8.86.35-1.05.35-2.17.35-3.17,0-4.94-2.33-8.25-5.81-8.25-.68,0-1.22.2-1.63.37h-.04c-.54.15-1.02.38-1.44.64-3.03-4.11-7.93-6.64-13.24-6.64s-10.67,2.54-14.62,7c-2.52,2.9-4.83,5.96-6.91,9.13-.63.07-1.3.18-2.07.29l-1.28.19-.14.02c-26.23,4.93-37.25,7.8-49.23,12.59,3.65-8.52,5.92-17.61,5.92-24.35,0-8.51-3.96-13.59-10.61-13.59-1.28,0-2.42.25-3.62.52l-.77.18c-10.14,2.99-24.92,19.59-26.56,21.46-13.26,14.91-24.43,30.22-35.29,47.04,9.63-22.23,19.86-44.38,31.68-64.89,1.29-2.01,2.22-3.9,2.9-5.93.4-1.08.4-2.03.4-3.04,0-4.62-2.99-7.97-7.12-7.97h-.65l-.51.04c-6.99,1.13-13.8,11.46-16.42,15.88-5.02,8.62-9.33,16.26-13.18,23.82-17.3,16.85-51.05,40.06-71.16,46.41-2.06.66-4.1.97-6.43.97-9.71,0-10.76-8.38-10.76-11.98s.78-7.26,2.26-10.81c.82.16,1.61.23,2.4.23,2.75,0,5.58-.98,8.21-2.86l2.61-1.9c5.71-4.15,11.61-8.44,16.95-13.11,3.28-2.72,5.5-6.76,7.66-10.66l.48-.87c1.54-2.65,2.39-6.02,2.39-9.48,0-7.18-4.18-12.19-10.17-12.19-1.79,0-4.5.22-7.5,2.12-10.25,5.53-18.63,13.46-25.08,23.68-.07.05-.14.09-.21.14-.79.51-1.61,1.04-2.44,1.65-5.9,4.29-16.17,16.04-29.18,30.91-23.08,26.4-57.95,66.28-73.59,66.28-.54,0-1.22-.13-2.07-.41-1.3-.42-5.25-1.69-5.85-9.72v-1.57c0-15.09,11.19-35.88,19.36-51.06,5.04-9.36,7.94-14.87,8.49-18.34.49-2.26.49-4.21.49-5.92,0-11.07-6.96-15.69-13.72-18.88,1.01-2.23,1.51-4.54,1.51-6.97,0-7.45-5.39-11.91-10.6-11.91-2.79,0-5.46,1.37-7.32,3.77l-.14.2c-3.88,5.88-6.19,12.95-6.19,18.9,0,3.47.83,6.38,2.41,8.42l.19.24.23.2c2.57,2.26,6.02,3.41,9.36,4.53,5.05,1.69,7.43,2.73,7.44,4.81,0,.1-.03.2-.05.3-.05.28-.12.63-.15,1.04-.81,3.59-3.58,9.66-6.77,16.67-6.62,14.53-15.7,34.43-15.7,50.92,0,3.73.31,6.66.96,9.2,1.46,5.93,4.33,13.02,13.59,15.24,1.3.39,2.51.39,3.68.39,19.32,0,47.58-32.32,74.91-63.57,7.7-8.8,15.15-17.32,21.82-24.37-1.33,4.11-2.03,8.82-2.03,13.64,0,15.43,7.5,25.4,19.11,25.4h1.51c18.3-1.15,48.96-21.62,69.52-39.17-27.98,62.47-49.09,126.69-66.2,181.92-.46,1.21-1.04,3.03-1.04,5.26v.56l.02.33c.74,7.14,4.22,8.2,6.23,8.2,3.27,0,5.48-2.8,5.57-2.92l.22-.33c3.62-6.08,4.83-11.41,5.79-15.69.46-2.03.86-3.79,1.43-5.36,1.37-3.73,2.72-7.45,4.07-11.17,4.54-12.54,9.24-25.51,14.62-37.85,19.61-45.51,43.76-87.17,71.78-123.84,9.27-12.27,22.14-26.31,31.93-31.04-.11.49-.22.99-.32,1.5-1.83,9.15-7.1,24.1-12.29,28.69-10.33,6.55-18.09,14.14-28.52,27.88-6.74,8.69-11.66,17.03-15.03,25.45-1.34,3.18-2,6.34-2,9.68,0,6.67,3.9,9.66,7.77,9.66,2.91,0,5.96-1.46,9.36-4.5,18.07-16.6,26.14-30.65,37.3-50.09,1.65-2.88,3.38-5.89,5.23-9.06,10.34-6.89,39.53-15.32,54.01-18.67-.73,1.62-1.43,3.25-2.05,4.92l-.05.14c-1.03,3.17-1.92,6.26-2.89,10.02-.25.97-.54,2.08-.54,3.33,0,5.96,4.49,9.66,8.64,9.66.78,0,1.75,0,2.97-.53,5.66-2.36,14.64-9.61,22.45-16.22-1.02,4.55-1.58,9.05-1.58,13,0,11.5,5.29,18.09,14.53,18.09h1.49c20.77-1.21,58.63-29.68,72.32-47.61.8-1.03.89-2.11.89-2.52,0-2.05-1.4-3.47-3.41-3.47ZM1286.07,262.92c-4.57,5.53-8.26,9.03-12.83,12.81,3.02-4.97,7.58-10.73,10.62-12.69l.22-.16c.51-.4.91-.46,1.1-.46.27,0,.57.18.88.5Z"/>
    </g>
  </g>
</svg>