<?xml version="1.0" encoding="UTF-8"?>
<svg id="Layer_2" data-name="Layer 2" xmlns="http://www.w3.org/2000/svg" viewBox="0 0 823.8 622.64">
  <defs>
    <style>
      .cls-1 {
        fill: #85f637;
      }
    </style>
  </defs>
  <g id="DESIGNED_BY_Kim_Zamorano" data-name="DESIGNED BY Kim Zamorano">
    <path class="cls-1" d="M770.77,48.67C738.52,17.78,691.23,0,627.27,0H223.57c-64.23,0-112.33,15.59-145.4,42.64-35.53,29.8-53.84,69.7-53.84,119.44,0,61.76,32.25,100.86,86.91,121.91v2.46C43.46,307.49,0,364.9,0,438.96c0,62.59,22.41,107.97,63.41,139.39,36.62,28.7,88.01,44.28,153.33,44.28h307.22v-222.76h-152.24v99.22h-137.48c-50.57,0-82-28.7-82-73.25,0-49.74,36.62-74.89,83.64-74.89h288.08v-.55h121.9c107.96,0,177.93-71.35,177.93-172.2,0-53.02-19.13-97.85-53.03-129.54ZM371.72,246.54h-125.46c-44.28,0-74.89-21.86-74.89-62.86s28.7-61.78,74.07-61.78h126.28v124.64ZM619.35,247.37h-95.38V109.61h95.38c46.2,0,73.53,25.96,73.53,67.79s-26.51,69.97-73.53,69.97Z"/>
  </g>
</svg>